<?xml version="1.0" encoding="UTF-8" standalone="no"?>
<svg version="1.1" xmlns="http://www.w3.org/2000/svg" xmlns:xlink="http://www.w3.org/1999/xlink" bizzid="648866" width="43.64cm" height="30.64cm" viewBox="1518.00 378.00 4364.00 3064.00" preserveAspectRatio="none">
<g>
<use xlink:href="#background"></use>
<g bizzid="1199362" bizzsemantic="1071691" bizzconcept="ApplicationInterface" bizztype="node" bizzsymbol="rectangle">
<g style="fill:#b8e7fc;stroke:#47aad6;stroke-width:3.00">
<rect x="3500.00" y="1940.00" width="400.00" height="160.00"/>
</g>
<g bizzid="icon1199362" bizzconcept="icon" bizztype="node" bizzsymbol="interface-icon">
<g style="fill:none;stroke:#000000;stroke-width:4.09" transform=" translate(3830.000000, 1950.000000) scale(0.495868,0.481928) translate(-200.000000, -210.000000)">
<path d="M 240,252 L 200,252"/>
<circle cx="280" cy="252" r="40"/>
</g>
</g>
<g bizzid="label1199362" bizzconcept="label" bizztype="text" bizzsymbol="text">
<g font-family="Arial" font-size="35.28" fill="#000000">
<text x="3615.50" y="1990.50">«GEMMA»&#xa;</text>
<text x="3598.50" y="2031.50">Documenten </text>
<text x="3672.50" y="2072.50">API</text>
</g>
</g>
</g>
<g bizzid="1199356" bizzsemantic="1072126" bizzconcept="ApplicationInterface" bizztype="node" bizzsymbol="rectangle">
<g style="fill:#b8e7fc;stroke:#47aad6;stroke-width:3.00">
<rect x="4440.00" y="1940.00" width="400.00" height="160.00"/>
</g>
<g bizzid="icon1199356" bizzconcept="icon" bizztype="node" bizzsymbol="interface-icon">
<g style="fill:none;stroke:#000000;stroke-width:4.09" transform=" translate(4770.000000, 1950.000000) scale(0.495868,0.481928) translate(-200.000000, -210.000000)">
<path d="M 240,252 L 200,252"/>
<circle cx="280" cy="252" r="40"/>
</g>
</g>
<g bizzid="label1199356" bizzconcept="label" bizztype="text" bizzsymbol="text">
<g font-family="Arial" font-size="35.28" fill="#000000">
<text x="4555.50" y="2011.00">«GEMMA»&#xa;</text>
<text x="4560.50" y="2052.00">Zaken API</text>
</g>
</g>
</g>
<g bizzid="1199361" bizzsemantic="1072132" bizzconcept="ApplicationInterface" bizztype="node" bizzsymbol="rectangle">
<g style="fill:#b8e7fc;stroke:#47aad6;stroke-width:3.00">
<rect x="2560.00" y="1940.00" width="400.00" height="160.00"/>
</g>
<g bizzid="icon1199361" bizzconcept="icon" bizztype="node" bizzsymbol="interface-icon">
<g style="fill:none;stroke:#000000;stroke-width:4.09" transform=" translate(2890.000000, 1950.000000) scale(0.495868,0.481928) translate(-200.000000, -210.000000)">
<path d="M 240,252 L 200,252"/>
<circle cx="280" cy="252" r="40"/>
</g>
</g>
<g bizzid="label1199361" bizzconcept="label" bizztype="text" bizzsymbol="text">
<g font-family="Arial" font-size="35.28" fill="#000000">
<text x="2675.50" y="2011.00">«GEMMA»&#xa;</text>
<text x="2670.50" y="2052.00">Klanten API</text>
</g>
</g>
</g>
<g bizzid="1199360" bizzsemantic="1072221" bizzconcept="ApplicationInterface" bizztype="node" bizzsymbol="rectangle">
<g style="fill:#b8e7fc;stroke:#47aad6;stroke-width:3.00">
<rect x="3970.00" y="1940.00" width="400.00" height="160.00"/>
</g>
<g bizzid="icon1199360" bizzconcept="icon" bizztype="node" bizzsymbol="interface-icon">
<g style="fill:none;stroke:#000000;stroke-width:4.09" transform=" translate(4300.000000, 1950.000000) scale(0.495868,0.481928) translate(-200.000000, -210.000000)">
<path d="M 240,252 L 200,252"/>
<circle cx="280" cy="252" r="40"/>
</g>
</g>
<g bizzid="label1199360" bizzconcept="label" bizztype="text" bizzsymbol="text">
<g font-family="Arial" font-size="35.28" fill="#000000">
<text x="4085.50" y="2011.00">«GEMMA»&#xa;</text>
<text x="4076.50" y="2052.00">Catalogi API</text>
</g>
</g>
</g>
<g bizzid="1199367" bizzsemantic="1072223" bizzconcept="ApplicationInterface" bizztype="node" bizzsymbol="rectangle">
<g style="fill:#b8e7fc;stroke:#47aad6;stroke-width:3.00">
<rect x="3030.00" y="1940.00" width="400.00" height="160.00"/>
</g>
<g bizzid="icon1199367" bizzconcept="icon" bizztype="node" bizzsymbol="interface-icon">
<g style="fill:none;stroke:#000000;stroke-width:4.09" transform=" translate(3360.000000, 1950.000000) scale(0.495868,0.481928) translate(-200.000000, -210.000000)">
<path d="M 240,252 L 200,252"/>
<circle cx="280" cy="252" r="40"/>
</g>
</g>
<g bizzid="label1199367" bizzconcept="label" bizztype="text" bizzsymbol="text">
<g font-family="Arial" font-size="35.28" fill="#000000">
<text x="3145.50" y="1990.50">«GEMMA»&#xa;</text>
<text x="3114.50" y="2031.50">Contactmomen</text>
<text x="3174.00" y="2072.50">ten API</text>
</g>
</g>
</g>
<g bizzid="1199370" bizzsemantic="1157959" bizzconcept="ApplicationComponent" bizztype="node" bizzsymbol="rectangle">
<g style="fill:#b8e7fc;stroke:#47aad6;stroke-width:3.00">
<rect x="3500.00" y="740.00" width="400.00" height="160.00"/>
</g>
<g bizzid="icon1199370" bizzconcept="icon" bizztype="node" bizzsymbol="component-icon">
<g style="fill:none;stroke:#000000;stroke-width:7.24" transform=" translate(3850.000000, 750.000000) scale(0.261438,0.291262) translate(2.000000, 2.000000)">
<path d="M 25,15 L 25,0 L 150,0 L 150,100 L 25,100 L 25,80"/>
<path d="M 0,15 L 50,15 L 50,40 L 0,40 L 0,15 z"/>
<path d="M 0,55 L 50,55 L 50,80 L 0,80 L 0,55 z"/>
<path d="M 25,40 L 25,55"/>
</g>
</g>
<g bizzid="label1199370" bizzconcept="label" bizztype="text" bizzsymbol="text">
<g font-family="Arial" font-size="35.28" fill="#000000">
<text x="3582.00" y="831.50">KISS Front-end</text>
</g>
</g>
</g>
<g bizzid="1199340" bizzsemantic="1151523" bizzconcept="ApplicationInterface" bizztype="node" bizzsymbol="rectangle">
<g style="fill:#b8e7fc;stroke:#47aad6;stroke-width:3.00">
<rect x="3500.00" y="1000.00" width="400.00" height="160.00"/>
</g>
<g bizzid="icon1199340" bizzconcept="icon" bizztype="node" bizzsymbol="interface-icon">
<g style="fill:none;stroke:#000000;stroke-width:4.09" transform=" translate(3830.000000, 1010.000000) scale(0.495868,0.481928) translate(-200.000000, -210.000000)">
<path d="M 240,252 L 200,252"/>
<circle cx="280" cy="252" r="40"/>
</g>
</g>
<g bizzid="label1199340" bizzconcept="label" bizztype="text" bizzsymbol="text">
<g font-family="Arial" font-size="35.28" fill="#000000">
<text x="3591.00" y="1091.50">KISS BFF API</text>
</g>
</g>
</g>
<g bizzid="1199383" bizzsemantic="1163987" bizzconcept="ApplicationInterface" bizztype="node" bizzsymbol="rectangle">
<g style="fill:#b8e7fc;stroke:#47aad6;stroke-width:3.00">
<rect x="5380.00" y="1940.00" width="400.00" height="160.00"/>
</g>
<g bizzid="icon1199383" bizzconcept="icon" bizztype="node" bizzsymbol="interface-icon">
<g style="fill:none;stroke:#000000;stroke-width:4.09" transform=" translate(5710.000000, 1950.000000) scale(0.495868,0.481928) translate(-200.000000, -210.000000)">
<path d="M 240,252 L 200,252"/>
<circle cx="280" cy="252" r="40"/>
</g>
</g>
<g bizzid="label1199383" bizzconcept="label" bizztype="text" bizzsymbol="text">
<g font-family="Arial" font-size="35.28" fill="#000000">
<text x="5465.00" y="2031.50">Objecttype API</text>
</g>
</g>
</g>
<g bizzid="1199379" bizzsemantic="1163867" bizzconcept="ApplicationInterface" bizztype="node" bizzsymbol="rectangle">
<g style="fill:#b8e7fc;stroke:#47aad6;stroke-width:3.00">
<rect x="3500.00" y="480.00" width="400.00" height="160.00"/>
</g>
<g bizzid="icon1199379" bizzconcept="icon" bizztype="node" bizzsymbol="interface-icon">
<g style="fill:none;stroke:#000000;stroke-width:4.09" transform=" translate(3830.000000, 490.000000) scale(0.495868,0.481928) translate(-200.000000, -210.000000)">
<path d="M 240,252 L 200,252"/>
<circle cx="280" cy="252" r="40"/>
</g>
</g>
<g bizzid="label1199379" bizzconcept="label" bizztype="text" bizzsymbol="text">
<g font-family="Arial" font-size="35.28" fill="#000000">
<text x="3610.00" y="551.00">KISS Front-</text>
<text x="3617.00" y="592.00">End (VUE)</text>
</g>
</g>
</g>
<g bizzid="1199371" bizzsemantic="1042032" bizzconcept="ApplicationComponent" bizztype="node" bizzsymbol="rectangle">
<g style="fill:#b8e7fc;stroke:#47aad6;stroke-width:3.00">
<rect x="3100.00" y="1240.00" width="1160.00" height="460.00"/>
</g>
<g bizzid="icon1199371" bizzconcept="icon" bizztype="node" bizzsymbol="component-icon">
<g style="fill:none;stroke:#000000;stroke-width:7.24" transform=" translate(4210.000000, 1250.000000) scale(0.261438,0.291262) translate(2.000000, 2.000000)">
<path d="M 25,15 L 25,0 L 150,0 L 150,100 L 25,100 L 25,80"/>
<path d="M 0,15 L 50,15 L 50,40 L 0,40 L 0,15 z"/>
<path d="M 0,55 L 50,55 L 50,80 L 0,80 L 0,55 z"/>
<path d="M 25,40 L 25,55"/>
</g>
</g>
<g bizzid="1199372" bizzsemantic="1151404" bizzconcept="ApplicationComponent" bizztype="node" bizzsymbol="rectangle">
<g style="fill:#b8e7fc;stroke:#47aad6;stroke-width:3.00">
<rect x="3800.00" y="1360.00" width="400.00" height="160.00"/>
</g>
<g bizzid="icon1199372" bizzconcept="icon" bizztype="node" bizzsymbol="component-icon">
<g style="fill:none;stroke:#000000;stroke-width:7.24" transform=" translate(4150.000000, 1370.000000) scale(0.261438,0.291262) translate(2.000000, 2.000000)">
<path d="M 25,15 L 25,0 L 150,0 L 150,100 L 25,100 L 25,80"/>
<path d="M 0,15 L 50,15 L 50,40 L 0,40 L 0,15 z"/>
<path d="M 0,55 L 50,55 L 50,80 L 0,80 L 0,55 z"/>
<path d="M 25,40 L 25,55"/>
</g>
</g>
<g bizzid="label1199372" bizzconcept="label" bizztype="text" bizzsymbol="text">
<g font-family="Arial" font-size="35.28" fill="#000000">
<text x="3929.50" y="1451.50">SyncTool</text>
</g>
</g>
</g>
<g bizzid="1199373" bizzsemantic="1074178" bizzconcept="ApplicationComponent" bizztype="node" bizzsymbol="rectangle">
<g style="fill:#b8e7fc;stroke:#47aad6;stroke-width:3.00">
<rect x="3200.00" y="1360.00" width="460.00" height="280.00"/>
</g>
<g bizzid="icon1199373" bizzconcept="icon" bizztype="node" bizzsymbol="component-icon">
<g style="fill:none;stroke:#000000;stroke-width:7.24" transform=" translate(3610.000000, 1370.000000) scale(0.261438,0.291262) translate(2.000000, 2.000000)">
<path d="M 25,15 L 25,0 L 150,0 L 150,100 L 25,100 L 25,80"/>
<path d="M 0,15 L 50,15 L 50,40 L 0,40 L 0,15 z"/>
<path d="M 0,55 L 50,55 L 50,80 L 0,80 L 0,55 z"/>
<path d="M 25,40 L 25,55"/>
</g>
</g>
<g bizzid="1199374" bizzsemantic="815802" bizzconcept="ApplicationDataObject" bizztype="node" bizzsymbol="column">
<g style="fill:#b8e7fc;stroke:#47aad6;stroke-width:3.00">
<path d="M 3240.00 1490.00 h 400.00 v -30.00 h -400.00 v 160.00 h 400.00 v -130.00"/>
</g>
<g bizzid="label1199374" bizzconcept="label" bizztype="text" bizzsymbol="text">
<g font-family="Arial" font-size="35.28" fill="#000000">
<text x="3363.00" y="1566.50">indexering</text>
</g>
</g>
</g>
<g bizzid="label1199373" bizzconcept="label" bizztype="text" bizzsymbol="text">
<g font-family="Arial" font-size="35.28" fill="#000000">
<text x="3379.50" y="1402.00">Elastic</text>
</g>
</g>
</g>
<g bizzid="label1199371" bizzconcept="label" bizztype="text" bizzsymbol="text">
<g font-family="Arial" font-size="35.28" fill="#000000">
<text x="3420.00" y="1282.00">KISS BFF (Backend-for-Frontend)</text>
</g>
</g>
</g>
<g bizzid="1199335" bizzsemantic="1163970" bizzconcept="ApplicationInterface" bizztype="node" bizzsymbol="rectangle">
<g style="fill:#b8e7fc;stroke:#47aad6;stroke-width:3.00">
<rect x="4910.00" y="1940.00" width="400.00" height="160.00"/>
</g>
<g bizzid="icon1199335" bizzconcept="icon" bizztype="node" bizzsymbol="interface-icon">
<g style="fill:none;stroke:#000000;stroke-width:4.09" transform=" translate(5240.000000, 1950.000000) scale(0.495868,0.481928) translate(-200.000000, -210.000000)">
<path d="M 240,252 L 200,252"/>
<circle cx="280" cy="252" r="40"/>
</g>
</g>
<g bizzid="label1199335" bizzconcept="label" bizztype="text" bizzsymbol="text">
<g font-family="Arial" font-size="35.28" fill="#000000">
<text x="5008.50" y="2031.50">Objecten API</text>
</g>
</g>
</g>
<g bizzid="1199355" bizzsemantic="1163896" bizzconcept="ApplicationInterface" bizztype="node" bizzsymbol="rectangle">
<g style="fill:#b8e7fc;stroke:#47aad6;stroke-width:3.00">
<rect x="2090.00" y="1940.00" width="400.00" height="160.00"/>
</g>
<g bizzid="icon1199355" bizzconcept="icon" bizztype="node" bizzsymbol="interface-icon">
<g style="fill:none;stroke:#000000;stroke-width:4.09" transform=" translate(2420.000000, 1950.000000) scale(0.495868,0.481928) translate(-200.000000, -210.000000)">
<path d="M 240,252 L 200,252"/>
<circle cx="280" cy="252" r="40"/>
</g>
</g>
<g bizzid="label1199355" bizzconcept="label" bizztype="text" bizzsymbol="text">
<g font-family="Arial" font-size="35.28" fill="#000000">
<text x="2187.50" y="2011.00">HaalCentraal </text>
<text x="2222.00" y="2052.00">BRP API</text>
</g>
</g>
</g>
<g bizzid="1199343" bizzsemantic="1163888" bizzconcept="ApplicationComponentApplicationInterfaceComposition" bizztype="relation" bizzsymbol="link">
<g>
<g style="fill:#000000;stroke:#000000;stroke-width:3.00">
<path style="fill:none;stroke-miterlimit:1.0;stroke-linejoin:round" d="M 3700.00 740.00 L 3700.00 640.00" />
</g>
<g transform="translate(3700.00, 740.00) rotate(179.999997) translate(-3700.00, -740.00)">
<g style="fill:#000000;stroke:#000000;stroke-width:3.00">
<path style="stroke-linejoin:round" d="M 3700.00 740.00 L 3715.00, 770.00 L 3700.00 800.00 L 3685.00 770.00 z"/>
</g>
</g>
</g>
</g>
<g bizzid="1199357" bizzsemantic="1163907" bizzconcept="ApplicationComponentApplicationInterfaceComposition" bizztype="relation" bizzsymbol="link">
<g>
<g style="fill:#000000;stroke:#000000;stroke-width:3.00">
<path style="fill:none;stroke-miterlimit:1.0;stroke-linejoin:round" d="M 3700.00 1240.00 L 3700.00 1160.00" />
</g>
<g transform="translate(3700.00, 1240.00) rotate(179.999997) translate(-3700.00, -1240.00)">
<g style="fill:#000000;stroke:#000000;stroke-width:3.00">
<path style="stroke-linejoin:round" d="M 3700.00 1240.00 L 3715.00, 1270.00 L 3700.00 1300.00 L 3685.00 1270.00 z"/>
</g>
</g>
</g>
</g>
<g bizzid="1199344" bizzsemantic="1163921" bizzconcept="ApplicationInterfaceApplicationComponentUse" bizztype="relation" bizzsymbol="link">
<g>
<g style="fill:#ffffff;stroke:#000000;stroke-width:3.00">
<path style="fill:none;stroke-miterlimit:1.0;stroke-linejoin:round" d="M 3700.00 1000.00 L 3700.00 900.00" />
</g>
<g transform="translate(3700.00, 900.00) rotate(0.000003) translate(-3700.00, -900.00)">
<g style="fill:#ffffff;stroke:#000000;stroke-width:3.00">
<path style="fill:none;stroke-linejoin:round;stroke-linecap:round;" d="M 3685.00 930.00 L 3700.00 900.00 L 3715.00 930.00"/>
</g>
</g>
</g>
</g>
<g bizzid="1199348" bizzsemantic="1169273" bizzconcept="ApplicationDataObject" bizztype="node" bizzsymbol="column">
<g style="fill:#b8e7fc;stroke:#47aad6;stroke-width:3.00">
<path d="M 5156.00 2190.00 h 400.00 v -30.00 h -400.00 v 173.00 h 400.00 v -143.00"/>
</g>
<g bizzid="label1199348" bizzconcept="label" bizztype="text" bizzsymbol="text">
<g font-family="Arial" font-size="35.28" fill="#000000">
<text x="5177.00" y="2273.00">PDC/kennisbank-artikel</text>
</g>
</g>
</g>
<g bizzid="1199349" bizzsemantic="1169463" bizzconcept="ApplicationDataObject" bizztype="node" bizzsymbol="column">
<g style="fill:#b8e7fc;stroke:#47aad6;stroke-width:3.00">
<path d="M 5160.00 2809.80 h 400.00 v -30.00 h -400.00 v 173.00 h 400.00 v -143.00"/>
</g>
<g bizzid="label1199349" bizzconcept="label" bizztype="text" bizzsymbol="text">
<g font-family="Arial" font-size="35.28" fill="#000000">
<text x="5213.50" y="2872.30">Contactverzoeken: &#xa;</text>
<text x="5270.50" y="2913.30">Interne taak</text>
</g>
</g>
</g>
<g bizzid="1199345" bizzsemantic="1169457" bizzconcept="ApplicationDataObject" bizztype="node" bizzsymbol="column">
<g style="fill:#b8e7fc;stroke:#47aad6;stroke-width:3.00">
<path d="M 3040.00 2190.00 h 400.00 v -30.00 h -400.00 v 173.00 h 400.00 v -143.00"/>
</g>
<g bizzid="label1199345" bizzconcept="label" bizztype="text" bizzsymbol="text">
<g font-family="Arial" font-size="35.28" fill="#000000">
<text x="3093.50" y="2252.50">Contactverzoeken: </text>
<text x="3123.00" y="2293.50">contactmoment</text>
</g>
</g>
</g>
<g bizzid="1199347" bizzsemantic="779438" bizzconcept="ApplicationDataObject" bizztype="node" bizzsymbol="column">
<g style="fill:#b8e7fc;stroke:#47aad6;stroke-width:3.00">
<path d="M 3970.00 2190.00 h 400.00 v -30.00 h -400.00 v 173.00 h 400.00 v -143.00"/>
</g>
<g bizzid="label1199347" bizzconcept="label" bizztype="text" bizzsymbol="text">
<g font-family="Arial" font-size="35.28" fill="#000000">
<text x="4091.00" y="2273.00">Zaaktypen</text>
</g>
</g>
</g>
<g bizzid="1199346" bizzsemantic="1071741" bizzconcept="ApplicationDataObject" bizztype="node" bizzsymbol="column">
<g style="fill:#b8e7fc;stroke:#47aad6;stroke-width:3.00">
<path d="M 3500.00 2190.00 h 400.00 v -30.00 h -400.00 v 173.00 h 400.00 v -143.00"/>
</g>
<g bizzid="label1199346" bizzconcept="label" bizztype="text" bizzsymbol="text">
<g font-family="Arial" font-size="35.28" fill="#000000">
<text x="3615.50" y="2252.50">«GEMMA»&#xa;</text>
<text x="3603.50" y="2293.50">Documenten</text>
</g>
</g>
</g>
<g bizzid="1199350" bizzsemantic="815649" bizzconcept="ApplicationDataObject" bizztype="node" bizzsymbol="column">
<g style="fill:#b8e7fc;stroke:#47aad6;stroke-width:3.00">
<path d="M 4436.00 2190.00 h 400.00 v -30.00 h -400.00 v 173.00 h 400.00 v -143.00"/>
</g>
<g bizzid="label1199350" bizzconcept="label" bizztype="text" bizzsymbol="text">
<g font-family="Arial" font-size="35.28" fill="#000000">
<text x="4589.00" y="2273.00">Zaken</text>
</g>
</g>
</g>
<g bizzid="1199380" bizzsemantic="1163941" bizzconcept="ApplicationInterfaceApplicationComponentUse" bizztype="relation" bizzsymbol="link">
<g>
<g style="fill:#ffffff;stroke:#000000;stroke-width:3.00">
<path style="fill:none;stroke-miterlimit:1.0;stroke-linejoin:round" d="M 2280.00 1940.00 L 2280.00 1520.00 Q 2280.00 1500.00 2300.00 1500.00 L 3100.00 1500.00" />
</g>
<g transform="translate(3100.00, 1500.00) rotate(90.000000) translate(-3100.00, -1500.00)">
<g style="fill:#ffffff;stroke:#000000;stroke-width:3.00">
<path style="fill:none;stroke-linejoin:round;stroke-linecap:round;" d="M 3085.00 1530.00 L 3100.00 1500.00 L 3115.00 1530.00"/>
</g>
</g>
</g>
</g>
<g bizzid="1199358" bizzsemantic="1199359" bizzconcept="ApplicationInterfaceApplicationComponentUse" bizztype="relation" bizzsymbol="link">
<g>
<g style="fill:#ffffff;stroke:#000000;stroke-width:3.00">
<path style="fill:none;stroke-miterlimit:1.0;stroke-linejoin:round" d="M 5100.00 1940.00 L 5100.00 1520.00 Q 5100.00 1500.00 5080.00 1500.00 L 4260.00 1500.00" />
</g>
<g transform="translate(4260.00, 1500.00) rotate(-89.999995) translate(-4260.00, -1500.00)">
<g style="fill:#ffffff;stroke:#000000;stroke-width:3.00">
<path style="fill:none;stroke-linejoin:round;stroke-linecap:round;" d="M 4245.00 1530.00 L 4260.00 1500.00 L 4275.00 1530.00"/>
</g>
</g>
</g>
</g>
<g bizzid="1199363" bizzsemantic="1199364" bizzconcept="ApplicationInterfaceApplicationComponentUse" bizztype="relation" bizzsymbol="link">
<g>
<g style="fill:#ffffff;stroke:#000000;stroke-width:3.00">
<path style="fill:none;stroke-miterlimit:1.0;stroke-linejoin:round" d="M 2756.00 1940.00 L 2759.82 1520.00 Q 2760.00 1500.00 2780.00 1500.00 L 3100.00 1500.00" />
</g>
<g transform="translate(3100.00, 1500.00) rotate(90.000000) translate(-3100.00, -1500.00)">
<g style="fill:#ffffff;stroke:#000000;stroke-width:3.00">
<path style="fill:none;stroke-linejoin:round;stroke-linecap:round;" d="M 3085.00 1530.00 L 3100.00 1500.00 L 3115.00 1530.00"/>
</g>
</g>
</g>
</g>
<g bizzid="1199368" bizzsemantic="1199369" bizzconcept="ApplicationDataObject" bizztype="node" bizzsymbol="column">
<g style="fill:#b8e7fc;stroke:#47aad6;stroke-width:3.00">
<path d="M 2560.00 2190.00 h 400.00 v -30.00 h -400.00 v 173.00 h 400.00 v -143.00"/>
</g>
<g bizzid="label1199368" bizzconcept="label" bizztype="text" bizzsymbol="text">
<g font-family="Arial" font-size="35.28" fill="#000000">
<text x="2703.00" y="2273.00">Klanten</text>
</g>
</g>
</g>
<g bizzid="1199381" bizzsemantic="1199382" bizzconcept="ApplicationDataObject" bizztype="node" bizzsymbol="column">
<g style="fill:#b8e7fc;stroke:#47aad6;stroke-width:3.00">
<path d="M 2080.00 2190.00 h 400.00 v -30.00 h -400.00 v 173.00 h 400.00 v -143.00"/>
</g>
<g bizzid="label1199381" bizzconcept="label" bizztype="text" bizzsymbol="text">
<g font-family="Arial" font-size="35.28" fill="#000000">
<text x="2134.00" y="2273.00">Persoonsinformatie</text>
</g>
</g>
</g>
<g bizzid="1199365" bizzsemantic="1199366" bizzconcept="ApplicationDataObject" bizztype="node" bizzsymbol="column">
<g style="fill:#b8e7fc;stroke:#47aad6;stroke-width:3.00">
<path d="M 5160.00 2603.20 h 400.00 v -30.00 h -400.00 v 173.00 h 400.00 v -143.00"/>
</g>
<g bizzid="label1199365" bizzconcept="label" bizztype="text" bizzsymbol="text">
<g font-family="Arial" font-size="35.28" fill="#000000">
<text x="5324.50" y="2686.20">VAC</text>
</g>
</g>
</g>
<g bizzid="1199353" bizzsemantic="1199354" bizzconcept="ApplicationDataObject" bizztype="node" bizzsymbol="column">
<g style="fill:#b8e7fc;stroke:#47aad6;stroke-width:3.00">
<path d="M 1620.00 2190.00 h 400.00 v -30.00 h -400.00 v 173.00 h 400.00 v -143.00"/>
</g>
<g bizzid="label1199353" bizzconcept="label" bizztype="text" bizzsymbol="text">
<g font-family="Arial" font-size="35.28" fill="#000000">
<text x="1739.00" y="2232.00">Bedrijven, </text>
<text x="1673.50" y="2273.00">rechtspersonen en </text>
<text x="1729.00" y="2314.00">organisaties</text>
</g>
</g>
</g>
<g bizzid="1199375" bizzsemantic="1199376" bizzconcept="ApplicationInterface" bizztype="node" bizzsymbol="rectangle">
<g style="fill:#b8e7fc;stroke:#47aad6;stroke-width:3.00">
<rect x="1620.00" y="1940.00" width="400.00" height="160.00"/>
</g>
<g bizzid="icon1199375" bizzconcept="icon" bizztype="node" bizzsymbol="interface-icon">
<g style="fill:none;stroke:#000000;stroke-width:4.09" transform=" translate(1950.000000, 1950.000000) scale(0.495868,0.481928) translate(-200.000000, -210.000000)">
<path d="M 240,252 L 200,252"/>
<circle cx="280" cy="252" r="40"/>
</g>
</g>
<g bizzid="label1199375" bizzconcept="label" bizztype="text" bizzsymbol="text">
<g font-family="Arial" font-size="35.28" fill="#000000">
<text x="1753.00" y="2031.50">KVK API</text>
</g>
</g>
</g>
<g bizzid="1199351" bizzsemantic="1199352" bizzconcept="ApplicationInterfaceApplicationComponentUse" bizztype="relation" bizzsymbol="link">
<g>
<g style="fill:#ffffff;stroke:#000000;stroke-width:3.00">
<path style="fill:none;stroke-miterlimit:1.0;stroke-linejoin:round" d="M 3700.00 1940.00 L 3700.00 1700.00" />
</g>
<g transform="translate(3700.00, 1700.00) rotate(0.000003) translate(-3700.00, -1700.00)">
<g style="fill:#ffffff;stroke:#000000;stroke-width:3.00">
<path style="fill:none;stroke-linejoin:round;stroke-linecap:round;" d="M 3685.00 1730.00 L 3700.00 1700.00 L 3715.00 1730.00"/>
</g>
</g>
</g>
</g>
<g bizzid="1199336" bizzsemantic="1199337" bizzconcept="ApplicationInterfaceApplicationComponentUse" bizztype="relation" bizzsymbol="link">
<g>
<g style="fill:#ffffff;stroke:#000000;stroke-width:3.00">
<path style="fill:none;stroke-miterlimit:1.0;stroke-linejoin:round" d="M 4170.00 1940.00 L 4170.00 1700.00" />
</g>
<g transform="translate(4170.00, 1700.00) rotate(0.000003) translate(-4170.00, -1700.00)">
<g style="fill:#ffffff;stroke:#000000;stroke-width:3.00">
<path style="fill:none;stroke-linejoin:round;stroke-linecap:round;" d="M 4155.00 1730.00 L 4170.00 1700.00 L 4185.00 1730.00"/>
</g>
</g>
</g>
</g>
<g bizzid="1199341" bizzsemantic="1199342" bizzconcept="ApplicationInterfaceApplicationComponentUse" bizztype="relation" bizzsymbol="link">
<g>
<g style="fill:#ffffff;stroke:#000000;stroke-width:3.00">
<path style="fill:none;stroke-miterlimit:1.0;stroke-linejoin:round" d="M 1820.00 1940.00 L 1820.00 1520.00 Q 1820.00 1500.00 1840.00 1500.00 L 3100.00 1500.00" />
</g>
<g transform="translate(3100.00, 1500.00) rotate(90.000000) translate(-3100.00, -1500.00)">
<g style="fill:#ffffff;stroke:#000000;stroke-width:3.00">
<path style="fill:none;stroke-linejoin:round;stroke-linecap:round;" d="M 3085.00 1530.00 L 3100.00 1500.00 L 3115.00 1530.00"/>
</g>
</g>
</g>
</g>
<g bizzid="1199377" bizzsemantic="1199378" bizzconcept="ApplicationInterfaceApplicationComponentUse" bizztype="relation" bizzsymbol="link">
<g>
<g style="fill:#ffffff;stroke:#000000;stroke-width:3.00">
<path style="fill:none;stroke-miterlimit:1.0;stroke-linejoin:round" d="M 4640.00 1940.00 L 4640.00 1520.00 Q 4640.00 1500.00 4620.00 1500.00 L 4260.00 1500.00" />
</g>
<g transform="translate(4260.00, 1500.00) rotate(-89.999995) translate(-4260.00, -1500.00)">
<g style="fill:#ffffff;stroke:#000000;stroke-width:3.00">
<path style="fill:none;stroke-linejoin:round;stroke-linecap:round;" d="M 4245.00 1530.00 L 4260.00 1500.00 L 4275.00 1530.00"/>
</g>
</g>
</g>
</g>
<g bizzid="1199338" bizzsemantic="1199339" bizzconcept="ApplicationInterfaceApplicationComponentUse" bizztype="relation" bizzsymbol="link">
<g>
<g style="fill:#ffffff;stroke:#000000;stroke-width:3.00">
<path style="fill:none;stroke-miterlimit:1.0;stroke-linejoin:round" d="M 3230.00 1940.00 L 3230.00 1700.00" />
</g>
<g transform="translate(3230.00, 1700.00) rotate(0.000003) translate(-3230.00, -1700.00)">
<g style="fill:#ffffff;stroke:#000000;stroke-width:3.00">
<path style="fill:none;stroke-linejoin:round;stroke-linecap:round;" d="M 3215.00 1730.00 L 3230.00 1700.00 L 3245.00 1730.00"/>
</g>
</g>
</g>
</g>
<g bizzid="1199333" bizzsemantic="1199334" bizzconcept="ElementElementAssociation" bizztype="relation" bizzsymbol="link">
<g>
<g style="fill:#000000;stroke:#000000;stroke-width:3.00">
<path style="fill:none;stroke-miterlimit:1.0;stroke-linejoin:round" d="M 5310.00 2020.00 L 5380.00 2020.00" />
</g>
</g>
</g>
<g bizzid="1199394" bizzsemantic="1199395" bizzconcept="ApplicationComponent" bizztype="node" bizzsymbol="rectangle">
<g style="fill:#b8e7fc;stroke:#47aad6;stroke-width:3.00">
<rect x="2400.00" y="760.00" width="400.00" height="160.00"/>
</g>
<g bizzid="icon1199394" bizzconcept="icon" bizztype="node" bizzsymbol="component-icon">
<g style="fill:none;stroke:#000000;stroke-width:7.24" transform=" translate(2750.000000, 770.000000) scale(0.261438,0.291262) translate(2.000000, 2.000000)">
<path d="M 25,15 L 25,0 L 150,0 L 150,100 L 25,100 L 25,80"/>
<path d="M 0,15 L 50,15 L 50,40 L 0,40 L 0,15 z"/>
<path d="M 0,55 L 50,55 L 50,80 L 0,80 L 0,55 z"/>
<path d="M 25,40 L 25,55"/>
</g>
</g>
<g bizzid="label1199394" bizzconcept="label" bizztype="text" bizzsymbol="text">
<g font-family="Arial" font-size="35.28" fill="#000000">
<text x="2487.00" y="831.00">Gemeentelijke </text>
<text x="2542.50" y="872.00">website</text>
</g>
</g>
</g>
<g bizzid="1199332" bizzsemantic="704470" bizzconcept="ApplicationComponent" bizztype="node" bizzsymbol="rectangle">
<g style="fill:#b8e7fc;stroke:#47aad6;stroke-width:3.00">
<rect x="4780.00" y="740.00" width="400.00" height="160.00"/>
</g>
<g bizzid="icon1199332" bizzconcept="icon" bizztype="node" bizzsymbol="component-icon">
<g style="fill:none;stroke:#000000;stroke-width:7.24" transform=" translate(5130.000000, 750.000000) scale(0.261438,0.291262) translate(2.000000, 2.000000)">
<path d="M 25,15 L 25,0 L 150,0 L 150,100 L 25,100 L 25,80"/>
<path d="M 0,15 L 50,15 L 50,40 L 0,40 L 0,15 z"/>
<path d="M 0,55 L 50,55 L 50,80 L 0,80 L 0,55 z"/>
<path d="M 25,40 L 25,55"/>
</g>
</g>
<g bizzid="label1199332" bizzconcept="label" bizztype="text" bizzsymbol="text">
<g font-family="Arial" font-size="35.28" fill="#000000">
<text x="4860.00" y="831.50">Active Directory</text>
</g>
</g>
</g>
<g bizzid="1199329" bizzsemantic="968910" bizzconcept="ApplicationInterface" bizztype="node" bizzsymbol="rectangle">
<g style="fill:#b8e7fc;stroke:#47aad6;stroke-width:3.00">
<rect x="4280.00" y="740.00" width="400.00" height="160.00"/>
</g>
<g bizzid="icon1199329" bizzconcept="icon" bizztype="node" bizzsymbol="interface-icon">
<g style="fill:none;stroke:#000000;stroke-width:4.09" transform=" translate(4610.000000, 750.000000) scale(0.495868,0.481928) translate(-200.000000, -210.000000)">
<path d="M 240,252 L 200,252"/>
<circle cx="280" cy="252" r="40"/>
</g>
</g>
<g bizzid="label1199329" bizzconcept="label" bizztype="text" bizzsymbol="text">
<g font-family="Arial" font-size="35.28" fill="#000000">
<text x="4416.50" y="790.50">OpenID </text>
<text x="4401.50" y="831.50">Connect / </text>
<text x="4415.50" y="872.50">Oauthv2</text>
</g>
</g>
</g>
<g bizzid="1199387" bizzsemantic="1199388" bizzconcept="ApplicationInterface" bizztype="node" bizzsymbol="rectangle">
<g style="fill:#b8e7fc;stroke:#47aad6;stroke-width:3.00">
<rect x="2400.00" y="1040.00" width="400.00" height="160.00"/>
</g>
<g bizzid="icon1199387" bizzconcept="icon" bizztype="node" bizzsymbol="interface-icon">
<g style="fill:none;stroke:#000000;stroke-width:4.09" transform=" translate(2730.000000, 1050.000000) scale(0.495868,0.481928) translate(-200.000000, -210.000000)">
<path d="M 240,252 L 200,252"/>
<circle cx="280" cy="252" r="40"/>
</g>
</g>
<g bizzid="label1199387" bizzconcept="label" bizztype="text" bizzsymbol="text">
<g font-family="Arial" font-size="35.28" fill="#000000">
<text x="2492.50" y="1131.50">Web-interface</text>
</g>
</g>
</g>
<g bizzid="1199330" bizzsemantic="1199331" bizzconcept="ApplicationInterfaceApplicationComponentUse" bizztype="relation" bizzsymbol="link">
<g>
<g style="fill:#ffffff;stroke:#000000;stroke-width:3.00">
<path style="fill:none;stroke-miterlimit:1.0;stroke-linejoin:round" d="M 2600.00 1200.00 L 2600.00 1420.00 Q 2600.00 1440.00 2620.00 1440.00 L 3200.00 1440.00" />
</g>
<g transform="translate(3200.00, 1440.00) rotate(90.000000) translate(-3200.00, -1440.00)">
<g style="fill:#ffffff;stroke:#000000;stroke-width:3.00">
<path style="fill:none;stroke-linejoin:round;stroke-linecap:round;" d="M 3185.00 1470.00 L 3200.00 1440.00 L 3215.00 1470.00"/>
</g>
</g>
</g>
</g>
<g bizzid="1199384" bizzsemantic="1199385" bizzconcept="ApplicationComponentApplicationInterfaceUse" bizztype="relation" bizzsymbol="link">
<g>
<g style="fill:#ffffff;stroke:#000000;stroke-width:3.00">
<path style="fill:none;stroke-miterlimit:1.0;stroke-linejoin:round" d="M 2600.00 920.00 L 2600.00 1040.00" />
</g>
<g transform="translate(2600.00, 1040.00) rotate(179.999997) translate(-2600.00, -1040.00)">
<g style="fill:#ffffff;stroke:#000000;stroke-width:3.00">
<path style="fill:none;stroke-linejoin:round;stroke-linecap:round;" d="M 2585.00 1070.00 L 2600.00 1040.00 L 2615.00 1070.00"/>
</g>
</g>
</g>
</g>
<g bizzid="1199386" bizzsemantic="1199327" bizzconcept="ApplicationComponentApplicationInterfaceUse" bizztype="relation" bizzsymbol="link">
<g>
<g style="fill:#ffffff;stroke:#000000;stroke-width:3.00">
<path style="fill:none;stroke-miterlimit:1.0;stroke-linejoin:round" d="M 4780.00 820.00 L 4680.00 820.00" />
</g>
<g transform="translate(4680.00, 820.00) rotate(-89.999995) translate(-4680.00, -820.00)">
<g style="fill:#ffffff;stroke:#000000;stroke-width:3.00">
<path style="fill:none;stroke-linejoin:round;stroke-linecap:round;" d="M 4665.00 850.00 L 4680.00 820.00 L 4695.00 850.00"/>
</g>
</g>
</g>
</g>
<g bizzid="1199389" bizzsemantic="1199328" bizzconcept="ApplicationInterfaceApplicationComponentUse" bizztype="relation" bizzsymbol="link">
<g>
<g style="fill:#ffffff;stroke:#000000;stroke-width:3.00">
<path style="fill:none;stroke-miterlimit:1.0;stroke-linejoin:round" d="M 4280.00 820.00 L 3900.00 820.00" />
</g>
<g transform="translate(3900.00, 820.00) rotate(-89.999995) translate(-3900.00, -820.00)">
<g style="fill:#ffffff;stroke:#000000;stroke-width:3.00">
<path style="fill:none;stroke-linejoin:round;stroke-linecap:round;" d="M 3885.00 850.00 L 3900.00 820.00 L 3915.00 850.00"/>
</g>
</g>
</g>
</g>
<g bizzid="1199390" bizzsemantic="1199391" bizzconcept="ApplicationDataObject" bizztype="node" bizzsymbol="column">
<g style="fill:#b8e7fc;stroke:#47aad6;stroke-width:3.00">
<path d="M 5160.00 3016.40 h 400.00 v -30.00 h -400.00 v 160.00 h 400.00 v -130.00"/>
</g>
<g bizzid="label1199390" bizzconcept="label" bizztype="text" bizzsymbol="text">
<g font-family="Arial" font-size="35.28" fill="#000000">
<text x="5280.50" y="3092.90">Afdelingen</text>
</g>
</g>
</g>
<g bizzid="1199392" bizzsemantic="1199393" bizzconcept="ApplicationDataObject" bizztype="node" bizzsymbol="column">
<g style="fill:#b8e7fc;stroke:#47aad6;stroke-width:3.00">
<path d="M 5160.00 3210.00 h 400.00 v -30.00 h -400.00 v 160.00 h 400.00 v -130.00"/>
</g>
<g bizzid="label1199392" bizzconcept="label" bizztype="text" bizzsymbol="text">
<g font-family="Arial" font-size="35.28" fill="#000000">
<text x="5294.50" y="3286.50">Groepen</text>
</g>
</g>
</g>
<g bizzid="1199396" bizzsemantic="1199397" bizzconcept="ApplicationDataObject" bizztype="node" bizzsymbol="column">
<g style="fill:#b8e7fc;stroke:#47aad6;stroke-width:3.00">
<path d="M 5160.00 2396.60 h 400.00 v -30.00 h -400.00 v 173.00 h 400.00 v -143.00"/>
</g>
<g bizzid="label1199396" bizzconcept="label" bizztype="text" bizzsymbol="text">
<g font-family="Arial" font-size="35.28" fill="#000000">
<text x="5179.50" y="2479.60">Smoelenboek gegevens</text>
</g>
</g>
</g>
<g bizzid="1199400" bizzsemantic="1186552" bizzconcept="ApplicationDataObject" bizztype="node" bizzsymbol="column">
<g style="fill:#b8e7fc;stroke:#47aad6;stroke-width:3.00">
<path d="M 5280.00 770.00 h 400.00 v -30.00 h -400.00 v 160.00 h 400.00 v -130.00"/>
</g>
<g bizzid="label1199400" bizzconcept="label" bizztype="text" bizzsymbol="text">
<g font-family="Arial" font-size="35.28" fill="#000000">
<text x="5377.50" y="846.50">Medewerkers</text>
</g>
</g>
</g>
<g bizzid="1199398" bizzsemantic="1199399" bizzconcept="ApplicationComponentApplicationDataObjectAccess" bizztype="relation" bizzsymbol="link">
<g>
<g style="fill:#000000;stroke:#000000;stroke-width:3.00;stroke-dasharray:4.00,4.00">
<path style="fill:none;stroke-miterlimit:1.0;stroke-linejoin:round" d="M 5180.00 820.00 L 5280.00 820.00" />
</g>
<g transform="translate(5280.00, 820.00) rotate(90.000000) translate(-5280.00, -820.00)">
<g style="fill:#000000;stroke:#000000;stroke-width:3.00">
<path style="fill:none;stroke-linejoin:round;stroke-linecap:round;" d="M 5270.00 840.00 L 5280.00 820.00 L 5290.00 840.00"/>
</g>
</g>
</g>
</g>
<g bizzid="1268109" bizzsemantic="1268110" bizzconcept="ApplicationDataObject" bizztype="node" bizzsymbol="column">
<g style="fill:#b8e7fc;stroke:#47aad6;stroke-width:3.00">
<path d="M 3040.00 2410.00 h 400.00 v -30.00 h -400.00 v 160.00 h 400.00 v -130.00"/>
</g>
<g bizzid="label1268109" bizzconcept="label" bizztype="text" bizzsymbol="text">
<g font-family="Arial" font-size="35.28" fill="#000000">
<text x="3101.00" y="2486.50">Contactmomenten</text>
</g>
</g>
</g>
<use xlink:href="#foreground"></use>
</g>
</svg>
