<?xml version="1.0" encoding="UTF-8" standalone="no"?>
<svg version="1.1" xmlns="http://www.w3.org/2000/svg" xmlns:xlink="http://www.w3.org/1999/xlink" bizzid="648464" width="42.08cm" height="25.84cm" viewBox="98.00 358.00 4208.00 2584.00" preserveAspectRatio="none">
<g>
<use xlink:href="#background"></use>
<g bizzid="1214086" bizzsemantic="1077743" bizzconcept="ApplicationInterface" bizztype="node" bizzsymbol="rectangle">
<g style="fill:#b8e7fc;stroke:#47aad6;stroke-width:3.00">
<rect x="1640.00" y="1860.00" width="400.00" height="160.00"/>
</g>
<g bizzid="icon1214086" bizzconcept="icon" bizztype="node" bizzsymbol="interface-icon">
<g style="fill:none;stroke:#000000;stroke-width:4.09" transform=" translate(1970.000000, 1870.000000) scale(0.495868,0.481928) translate(-200.000000, -210.000000)">
<path d="M 240,252 L 200,252"/>
<circle cx="280" cy="252" r="40"/>
</g>
</g>
<g bizzid="label1214086" bizzconcept="label" bizztype="text" bizzsymbol="text">
<g font-family="Arial" font-size="35.28" fill="#000000">
<text x="1755.50" y="1910.50">«GEMMA»&#xa;</text>
<text x="1738.50" y="1951.50">Documenten </text>
<text x="1812.50" y="1992.50">API</text>
</g>
</g>
</g>
<g bizzid="1214112" bizzsemantic="1077969" bizzconcept="ApplicationInterface" bizztype="node" bizzsymbol="rectangle">
<g style="fill:#b8e7fc;stroke:#47aad6;stroke-width:3.00">
<rect x="2620.00" y="1860.00" width="400.00" height="160.00"/>
</g>
<g bizzid="icon1214112" bizzconcept="icon" bizztype="node" bizzsymbol="interface-icon">
<g style="fill:none;stroke:#000000;stroke-width:4.09" transform=" translate(2950.000000, 1870.000000) scale(0.495868,0.481928) translate(-200.000000, -210.000000)">
<path d="M 240,252 L 200,252"/>
<circle cx="280" cy="252" r="40"/>
</g>
</g>
<g bizzid="label1214112" bizzconcept="label" bizztype="text" bizzsymbol="text">
<g font-family="Arial" font-size="35.28" fill="#000000">
<text x="2735.50" y="1931.00">«GEMMA»&#xa;</text>
<text x="2740.50" y="1972.00">Zaken API</text>
</g>
</g>
</g>
<g bizzid="1214113" bizzsemantic="1078943" bizzconcept="ApplicationInterface" bizztype="node" bizzsymbol="rectangle">
<g style="fill:#b8e7fc;stroke:#47aad6;stroke-width:3.00">
<rect x="680.00" y="1860.00" width="400.00" height="160.00"/>
</g>
<g bizzid="icon1214113" bizzconcept="icon" bizztype="node" bizzsymbol="interface-icon">
<g style="fill:none;stroke:#000000;stroke-width:4.09" transform=" translate(1010.000000, 1870.000000) scale(0.495868,0.481928) translate(-200.000000, -210.000000)">
<path d="M 240,252 L 200,252"/>
<circle cx="280" cy="252" r="40"/>
</g>
</g>
<g bizzid="label1214113" bizzconcept="label" bizztype="text" bizzsymbol="text">
<g font-family="Arial" font-size="35.28" fill="#000000">
<text x="795.50" y="1931.00">«GEMMA»&#xa;</text>
<text x="790.50" y="1972.00">Klanten API</text>
</g>
</g>
</g>
<g bizzid="1214085" bizzsemantic="1077946" bizzconcept="ApplicationInterface" bizztype="node" bizzsymbol="rectangle">
<g style="fill:#b8e7fc;stroke:#47aad6;stroke-width:3.00">
<rect x="2140.00" y="1860.00" width="400.00" height="160.00"/>
</g>
<g bizzid="icon1214085" bizzconcept="icon" bizztype="node" bizzsymbol="interface-icon">
<g style="fill:none;stroke:#000000;stroke-width:4.09" transform=" translate(2470.000000, 1870.000000) scale(0.495868,0.481928) translate(-200.000000, -210.000000)">
<path d="M 240,252 L 200,252"/>
<circle cx="280" cy="252" r="40"/>
</g>
</g>
<g bizzid="label1214085" bizzconcept="label" bizztype="text" bizzsymbol="text">
<g font-family="Arial" font-size="35.28" fill="#000000">
<text x="2255.50" y="1931.00">«GEMMA»&#xa;</text>
<text x="2246.50" y="1972.00">Catalogi API</text>
</g>
</g>
</g>
<g bizzid="1214114" bizzsemantic="1079032" bizzconcept="ApplicationInterface" bizztype="node" bizzsymbol="rectangle">
<g style="fill:#b8e7fc;stroke:#47aad6;stroke-width:3.00">
<rect x="1160.00" y="1860.00" width="400.00" height="160.00"/>
</g>
<g bizzid="icon1214114" bizzconcept="icon" bizztype="node" bizzsymbol="interface-icon">
<g style="fill:none;stroke:#000000;stroke-width:4.09" transform=" translate(1490.000000, 1870.000000) scale(0.495868,0.481928) translate(-200.000000, -210.000000)">
<path d="M 240,252 L 200,252"/>
<circle cx="280" cy="252" r="40"/>
</g>
</g>
<g bizzid="label1214114" bizzconcept="label" bizztype="text" bizzsymbol="text">
<g font-family="Arial" font-size="35.28" fill="#000000">
<text x="1275.50" y="1910.50">«GEMMA»&#xa;</text>
<text x="1244.50" y="1951.50">Contactmomen</text>
<text x="1304.00" y="1992.50">ten API</text>
</g>
</g>
</g>
<g bizzid="1214083" bizzsemantic="1134545" bizzconcept="ApplicationComponent" bizztype="node" bizzsymbol="rectangle">
<g style="fill:#b8e7fc;stroke:#47aad6;stroke-width:3.00">
<rect x="2580.00" y="720.00" width="400.00" height="160.00"/>
</g>
<g bizzid="icon1214083" bizzconcept="icon" bizztype="node" bizzsymbol="component-icon">
<g style="fill:none;stroke:#000000;stroke-width:7.24" transform=" translate(2930.000000, 730.000000) scale(0.261438,0.291262) translate(2.000000, 2.000000)">
<path d="M 25,15 L 25,0 L 150,0 L 150,100 L 25,100 L 25,80"/>
<path d="M 0,15 L 50,15 L 50,40 L 0,40 L 0,15 z"/>
<path d="M 0,55 L 50,55 L 50,80 L 0,80 L 0,55 z"/>
<path d="M 25,40 L 25,55"/>
</g>
</g>
<g bizzid="label1214083" bizzconcept="label" bizztype="text" bizzsymbol="text">
<g font-family="Arial" font-size="35.28" fill="#000000">
<text x="2662.00" y="811.50">KISS Front-end</text>
</g>
</g>
</g>
<g bizzid="1214090" bizzsemantic="1166953" bizzconcept="ApplicationInterface" bizztype="node" bizzsymbol="rectangle">
<g style="fill:#b8e7fc;stroke:#47aad6;stroke-width:3.00">
<rect x="2580.00" y="980.00" width="400.00" height="160.00"/>
</g>
<g bizzid="icon1214090" bizzconcept="icon" bizztype="node" bizzsymbol="interface-icon">
<g style="fill:none;stroke:#000000;stroke-width:4.09" transform=" translate(2910.000000, 990.000000) scale(0.495868,0.481928) translate(-200.000000, -210.000000)">
<path d="M 240,252 L 200,252"/>
<circle cx="280" cy="252" r="40"/>
</g>
</g>
<g bizzid="label1214090" bizzconcept="label" bizztype="text" bizzsymbol="text">
<g font-family="Arial" font-size="35.28" fill="#000000">
<text x="2671.00" y="1071.50">KISS BFF API</text>
</g>
</g>
</g>
<g bizzid="660168" bizzsemantic="1199824" bizzconcept="ApplicationInterface" bizztype="node" bizzsymbol="rectangle">
<g style="fill:#b8e7fc;stroke:#47aad6;stroke-width:3.00">
<rect x="3804.00" y="1860.00" width="400.00" height="160.00"/>
</g>
<g bizzid="icon660168" bizzconcept="icon" bizztype="node" bizzsymbol="interface-icon">
<g style="fill:none;stroke:#000000;stroke-width:4.09" transform=" translate(4134.000000, 1870.000000) scale(0.495868,0.481928) translate(-200.000000, -210.000000)">
<path d="M 240,252 L 200,252"/>
<circle cx="280" cy="252" r="40"/>
</g>
</g>
<g bizzid="label660168" bizzconcept="label" bizztype="text" bizzsymbol="text">
<g font-family="Arial" font-size="35.28" fill="#000000">
<text x="3889.00" y="1951.50">Objecttype API</text>
</g>
</g>
</g>
<g bizzid="1214093" bizzsemantic="1199833" bizzconcept="ApplicationInterface" bizztype="node" bizzsymbol="rectangle">
<g style="fill:#b8e7fc;stroke:#47aad6;stroke-width:3.00">
<rect x="2580.00" y="460.00" width="400.00" height="160.00"/>
</g>
<g bizzid="icon1214093" bizzconcept="icon" bizztype="node" bizzsymbol="interface-icon">
<g style="fill:none;stroke:#000000;stroke-width:4.09" transform=" translate(2910.000000, 470.000000) scale(0.495868,0.481928) translate(-200.000000, -210.000000)">
<path d="M 240,252 L 200,252"/>
<circle cx="280" cy="252" r="40"/>
</g>
</g>
<g bizzid="label1214093" bizzconcept="label" bizztype="text" bizzsymbol="text">
<g font-family="Arial" font-size="35.28" fill="#000000">
<text x="2690.00" y="531.00">KISS Front-</text>
<text x="2697.00" y="572.00">End (VUE)</text>
</g>
</g>
</g>
<g bizzid="1214105" bizzsemantic="1043602" bizzconcept="ApplicationComponent" bizztype="node" bizzsymbol="rectangle">
<g style="fill:#b8e7fc;stroke:#47aad6;stroke-width:3.00">
<rect x="2180.00" y="1220.00" width="1160.00" height="460.00"/>
</g>
<g bizzid="icon1214105" bizzconcept="icon" bizztype="node" bizzsymbol="component-icon">
<g style="fill:none;stroke:#000000;stroke-width:7.24" transform=" translate(3290.000000, 1230.000000) scale(0.261438,0.291262) translate(2.000000, 2.000000)">
<path d="M 25,15 L 25,0 L 150,0 L 150,100 L 25,100 L 25,80"/>
<path d="M 0,15 L 50,15 L 50,40 L 0,40 L 0,15 z"/>
<path d="M 0,55 L 50,55 L 50,80 L 0,80 L 0,55 z"/>
<path d="M 25,40 L 25,55"/>
</g>
</g>
<g bizzid="1214106" bizzsemantic="1166515" bizzconcept="ApplicationComponent" bizztype="node" bizzsymbol="rectangle">
<g style="fill:#b8e7fc;stroke:#47aad6;stroke-width:3.00">
<rect x="2880.00" y="1340.00" width="400.00" height="160.00"/>
</g>
<g bizzid="icon1214106" bizzconcept="icon" bizztype="node" bizzsymbol="component-icon">
<g style="fill:none;stroke:#000000;stroke-width:7.24" transform=" translate(3230.000000, 1350.000000) scale(0.261438,0.291262) translate(2.000000, 2.000000)">
<path d="M 25,15 L 25,0 L 150,0 L 150,100 L 25,100 L 25,80"/>
<path d="M 0,15 L 50,15 L 50,40 L 0,40 L 0,15 z"/>
<path d="M 0,55 L 50,55 L 50,80 L 0,80 L 0,55 z"/>
<path d="M 25,40 L 25,55"/>
</g>
</g>
<g bizzid="label1214106" bizzconcept="label" bizztype="text" bizzsymbol="text">
<g font-family="Arial" font-size="35.28" fill="#000000">
<text x="3009.50" y="1431.50">SyncTool</text>
</g>
</g>
</g>
<g bizzid="1214107" bizzsemantic="1099935" bizzconcept="ApplicationComponent" bizztype="node" bizzsymbol="rectangle">
<g style="fill:#b8e7fc;stroke:#47aad6;stroke-width:3.00">
<rect x="2280.00" y="1340.00" width="460.00" height="280.00"/>
</g>
<g bizzid="icon1214107" bizzconcept="icon" bizztype="node" bizzsymbol="component-icon">
<g style="fill:none;stroke:#000000;stroke-width:7.24" transform=" translate(2690.000000, 1350.000000) scale(0.261438,0.291262) translate(2.000000, 2.000000)">
<path d="M 25,15 L 25,0 L 150,0 L 150,100 L 25,100 L 25,80"/>
<path d="M 0,15 L 50,15 L 50,40 L 0,40 L 0,15 z"/>
<path d="M 0,55 L 50,55 L 50,80 L 0,80 L 0,55 z"/>
<path d="M 25,40 L 25,55"/>
</g>
</g>
<g bizzid="1214108" bizzsemantic="815163" bizzconcept="ApplicationDataObject" bizztype="node" bizzsymbol="column">
<g style="fill:#b8e7fc;stroke:#47aad6;stroke-width:3.00">
<path d="M 2320.00 1470.00 h 400.00 v -30.00 h -400.00 v 160.00 h 400.00 v -130.00"/>
</g>
<g bizzid="label1214108" bizzconcept="label" bizztype="text" bizzsymbol="text">
<g font-family="Arial" font-size="35.28" fill="#000000">
<text x="2443.00" y="1546.50">indexering</text>
</g>
</g>
</g>
<g bizzid="label1214107" bizzconcept="label" bizztype="text" bizzsymbol="text">
<g font-family="Arial" font-size="35.28" fill="#000000">
<text x="2459.50" y="1382.00">Elastic</text>
</g>
</g>
</g>
<g bizzid="label1214105" bizzconcept="label" bizztype="text" bizzsymbol="text">
<g font-family="Arial" font-size="35.28" fill="#000000">
<text x="2500.00" y="1262.00">KISS BFF (Backend-for-Frontend)</text>
</g>
</g>
</g>
<g bizzid="1214088" bizzsemantic="1123846" bizzconcept="ApplicationInterface" bizztype="node" bizzsymbol="rectangle">
<g style="fill:#b8e7fc;stroke:#47aad6;stroke-width:3.00">
<rect x="3320.00" y="1860.00" width="400.00" height="160.00"/>
</g>
<g bizzid="icon1214088" bizzconcept="icon" bizztype="node" bizzsymbol="interface-icon">
<g style="fill:none;stroke:#000000;stroke-width:4.09" transform=" translate(3650.000000, 1870.000000) scale(0.495868,0.481928) translate(-200.000000, -210.000000)">
<path d="M 240,252 L 200,252"/>
<circle cx="280" cy="252" r="40"/>
</g>
</g>
<g bizzid="label1214088" bizzconcept="label" bizztype="text" bizzsymbol="text">
<g font-family="Arial" font-size="35.28" fill="#000000">
<text x="3418.50" y="1951.50">Objecten API</text>
</g>
</g>
</g>
<g bizzid="1214100" bizzsemantic="1199836" bizzconcept="ApplicationInterface" bizztype="node" bizzsymbol="rectangle">
<g style="fill:#b8e7fc;stroke:#47aad6;stroke-width:3.00">
<rect x="200.00" y="1860.00" width="400.00" height="160.00"/>
</g>
<g bizzid="icon1214100" bizzconcept="icon" bizztype="node" bizzsymbol="interface-icon">
<g style="fill:none;stroke:#000000;stroke-width:4.09" transform=" translate(530.000000, 1870.000000) scale(0.495868,0.481928) translate(-200.000000, -210.000000)">
<path d="M 240,252 L 200,252"/>
<circle cx="280" cy="252" r="40"/>
</g>
</g>
<g bizzid="label1214100" bizzconcept="label" bizztype="text" bizzsymbol="text">
<g font-family="Arial" font-size="35.28" fill="#000000">
<text x="297.50" y="1931.00">HaalCentraal </text>
<text x="332.00" y="1972.00">BRP API</text>
</g>
</g>
</g>
<g bizzid="1214094" bizzsemantic="1199835" bizzconcept="ApplicationComponentApplicationInterfaceComposition" bizztype="relation" bizzsymbol="link">
<g>
<g style="fill:#000000;stroke:#000000;stroke-width:3.00">
<path style="fill:none;stroke-miterlimit:1.0;stroke-linejoin:round" d="M 2780.00 720.00 L 2780.00 620.00" />
</g>
<g transform="translate(2780.00, 720.00) rotate(179.999997) translate(-2780.00, -720.00)">
<g style="fill:#000000;stroke:#000000;stroke-width:3.00">
<path style="stroke-linejoin:round" d="M 2780.00 720.00 L 2795.00, 750.00 L 2780.00 780.00 L 2765.00 750.00 z"/>
</g>
</g>
</g>
</g>
<g bizzid="1214109" bizzsemantic="1199829" bizzconcept="ApplicationComponentApplicationInterfaceComposition" bizztype="relation" bizzsymbol="link">
<g>
<g style="fill:#000000;stroke:#000000;stroke-width:3.00">
<path style="fill:none;stroke-miterlimit:1.0;stroke-linejoin:round" d="M 2780.00 1220.00 L 2780.00 1140.00" />
</g>
<g transform="translate(2780.00, 1220.00) rotate(179.999997) translate(-2780.00, -1220.00)">
<g style="fill:#000000;stroke:#000000;stroke-width:3.00">
<path style="stroke-linejoin:round" d="M 2780.00 1220.00 L 2795.00, 1250.00 L 2780.00 1280.00 L 2765.00 1250.00 z"/>
</g>
</g>
</g>
</g>
<g bizzid="1214099" bizzsemantic="1199817" bizzconcept="ApplicationInterfaceApplicationComponentUse" bizztype="relation" bizzsymbol="link">
<g>
<g style="fill:#ffffff;stroke:#000000;stroke-width:3.00">
<path style="fill:none;stroke-miterlimit:1.0;stroke-linejoin:round" d="M 2780.00 980.00 L 2780.00 880.00" />
</g>
<g transform="translate(2780.00, 880.00) rotate(0.000003) translate(-2780.00, -880.00)">
<g style="fill:#ffffff;stroke:#000000;stroke-width:3.00">
<path style="fill:none;stroke-linejoin:round;stroke-linecap:round;" d="M 2765.00 910.00 L 2780.00 880.00 L 2795.00 910.00"/>
</g>
</g>
</g>
</g>
<g bizzid="1214101" bizzsemantic="1199977" bizzconcept="ApplicationDataObject" bizztype="node" bizzsymbol="column">
<g style="fill:#b8e7fc;stroke:#47aad6;stroke-width:3.00">
<path d="M 3580.00 2110.00 h 400.00 v -30.00 h -400.00 v 160.00 h 400.00 v -130.00"/>
</g>
<g bizzid="label1214101" bizzconcept="label" bizztype="text" bizzsymbol="text">
<g font-family="Arial" font-size="35.28" fill="#000000">
<text x="3648.50" y="2186.50">kennisbankartikel</text>
</g>
</g>
</g>
<g bizzid="1214095" bizzsemantic="944053" bizzconcept="ApplicationDataObject" bizztype="node" bizzsymbol="column">
<g style="fill:#b8e7fc;stroke:#47aad6;stroke-width:3.00">
<path d="M 3580.00 2310.00 h 400.00 v -30.00 h -400.00 v 160.00 h 400.00 v -130.00"/>
</g>
<g bizzid="label1214095" bizzconcept="label" bizztype="text" bizzsymbol="text">
<g font-family="Arial" font-size="35.28" fill="#000000">
<text x="3608.50" y="2386.50">medewerker gegevens</text>
</g>
</g>
</g>
<g bizzid="1214096" bizzsemantic="971939" bizzconcept="ApplicationDataObject" bizztype="node" bizzsymbol="column">
<g style="fill:#b8e7fc;stroke:#47aad6;stroke-width:3.00">
<path d="M 3580.00 2510.00 h 400.00 v -30.00 h -400.00 v 160.00 h 400.00 v -130.00"/>
</g>
<g bizzid="label1214096" bizzconcept="label" bizztype="text" bizzsymbol="text">
<g font-family="Arial" font-size="35.28" fill="#000000">
<text x="3743.50" y="2586.50">PDC</text>
</g>
</g>
</g>
<g bizzid="1214102" bizzsemantic="753201" bizzconcept="ApplicationDataObject" bizztype="node" bizzsymbol="column">
<g style="fill:#b8e7fc;stroke:#47aad6;stroke-width:3.00">
<path d="M 1160.00 2310.00 h 400.00 v -30.00 h -400.00 v 160.00 h 400.00 v -130.00"/>
</g>
<g bizzid="label1214102" bizzconcept="label" bizztype="text" bizzsymbol="text">
<g font-family="Arial" font-size="35.28" fill="#000000">
<text x="1262.50" y="2386.50">klant-contact</text>
</g>
</g>
</g>
<g bizzid="1214084" bizzsemantic="1199999" bizzconcept="ApplicationDataObject" bizztype="node" bizzsymbol="column">
<g style="fill:#b8e7fc;stroke:#47aad6;stroke-width:3.00">
<path d="M 1160.00 2510.00 h 400.00 v -30.00 h -400.00 v 160.00 h 400.00 v -130.00"/>
</g>
<g bizzid="label1214084" bizzconcept="label" bizztype="text" bizzsymbol="text">
<g font-family="Arial" font-size="35.28" fill="#000000">
<text x="1275.50" y="2586.50">Internetaak</text>
</g>
</g>
</g>
<g bizzid="1214098" bizzsemantic="1123421" bizzconcept="ApplicationDataObject" bizztype="node" bizzsymbol="column">
<g style="fill:#b8e7fc;stroke:#47aad6;stroke-width:3.00">
<path d="M 1160.00 2110.00 h 400.00 v -30.00 h -400.00 v 160.00 h 400.00 v -130.00"/>
</g>
<g bizzid="label1214098" bizzconcept="label" bizztype="text" bizzsymbol="text">
<g font-family="Arial" font-size="35.28" fill="#000000">
<text x="1205.50" y="2186.50">(Contact-)verzoeken</text>
</g>
</g>
</g>
<g bizzid="1214081" bizzsemantic="778794" bizzconcept="ApplicationDataObject" bizztype="node" bizzsymbol="column">
<g style="fill:#b8e7fc;stroke:#47aad6;stroke-width:3.00">
<path d="M 2140.00 2110.00 h 400.00 v -30.00 h -400.00 v 160.00 h 400.00 v -130.00"/>
</g>
<g bizzid="label1214081" bizzconcept="label" bizztype="text" bizzsymbol="text">
<g font-family="Arial" font-size="35.28" fill="#000000">
<text x="2261.00" y="2186.50">Zaaktypen</text>
</g>
</g>
</g>
<g bizzid="1214092" bizzsemantic="1084545" bizzconcept="ApplicationDataObject" bizztype="node" bizzsymbol="column">
<g style="fill:#b8e7fc;stroke:#47aad6;stroke-width:3.00">
<path d="M 1640.00 2110.00 h 400.00 v -30.00 h -400.00 v 160.00 h 400.00 v -130.00"/>
</g>
<g bizzid="label1214092" bizzconcept="label" bizztype="text" bizzsymbol="text">
<g font-family="Arial" font-size="35.28" fill="#000000">
<text x="1755.50" y="2166.00">«GEMMA»&#xa;</text>
<text x="1743.50" y="2207.00">Documenten</text>
</g>
</g>
</g>
<g bizzid="1214104" bizzsemantic="815010" bizzconcept="ApplicationDataObject" bizztype="node" bizzsymbol="column">
<g style="fill:#b8e7fc;stroke:#47aad6;stroke-width:3.00">
<path d="M 2620.00 2110.00 h 400.00 v -30.00 h -400.00 v 160.00 h 400.00 v -130.00"/>
</g>
<g bizzid="label1214104" bizzconcept="label" bizztype="text" bizzsymbol="text">
<g font-family="Arial" font-size="35.28" fill="#000000">
<text x="2773.00" y="2186.50">Zaken</text>
</g>
</g>
</g>
<g bizzid="1214082" bizzsemantic="1199844" bizzconcept="ApplicationInterfaceApplicationComponentUse" bizztype="relation" bizzsymbol="link">
<g>
<g style="fill:#ffffff;stroke:#000000;stroke-width:3.00">
<path style="fill:none;stroke-miterlimit:1.0;stroke-linejoin:round" d="M 400.00 1860.00 L 399.05 1500.00 Q 399.00 1480.00 419.00 1480.00 L 2180.00 1480.00" />
</g>
<g transform="translate(2180.00, 1480.00) rotate(90.000000) translate(-2180.00, -1480.00)">
<g style="fill:#ffffff;stroke:#000000;stroke-width:3.00">
<path style="fill:none;stroke-linejoin:round;stroke-linecap:round;" d="M 2165.00 1510.00 L 2180.00 1480.00 L 2195.00 1510.00"/>
</g>
</g>
</g>
</g>
<g bizzid="1214089" bizzsemantic="1213880" bizzconcept="ApplicationInterfaceApplicationComponentUse" bizztype="relation" bizzsymbol="link">
<g>
<g style="fill:#ffffff;stroke:#000000;stroke-width:3.00">
<path style="fill:none;stroke-miterlimit:1.0;stroke-linejoin:round" d="M 1352.00 1860.00 L 1358.63 1500.00 Q 1359.00 1480.00 1379.00 1480.00 L 2180.00 1480.00" />
</g>
<g transform="translate(2180.00, 1480.00) rotate(90.000000) translate(-2180.00, -1480.00)">
<g style="fill:#ffffff;stroke:#000000;stroke-width:3.00">
<path style="fill:none;stroke-linejoin:round;stroke-linecap:round;" d="M 2165.00 1510.00 L 2180.00 1480.00 L 2195.00 1510.00"/>
</g>
</g>
</g>
</g>
<g bizzid="1214087" bizzsemantic="1213825" bizzconcept="ApplicationInterfaceApplicationComponentUse" bizztype="relation" bizzsymbol="link">
<g>
<g style="fill:#ffffff;stroke:#000000;stroke-width:3.00">
<path style="fill:none;stroke-miterlimit:1.0;stroke-linejoin:round" d="M 1840.00 1860.00 L 1840.00 1500.00 Q 1840.00 1480.00 1860.00 1480.00 L 2180.00 1480.00" />
</g>
<g transform="translate(2180.00, 1480.00) rotate(90.000000) translate(-2180.00, -1480.00)">
<g style="fill:#ffffff;stroke:#000000;stroke-width:3.00">
<path style="fill:none;stroke-linejoin:round;stroke-linecap:round;" d="M 2165.00 1510.00 L 2180.00 1480.00 L 2195.00 1510.00"/>
</g>
</g>
</g>
</g>
<g bizzid="1214091" bizzsemantic="1213887" bizzconcept="ApplicationInterfaceApplicationComponentUse" bizztype="relation" bizzsymbol="link">
<g>
<g style="fill:#ffffff;stroke:#000000;stroke-width:3.00">
<path style="fill:none;stroke-miterlimit:1.0;stroke-linejoin:round" d="M 2344.00 1860.00 L 2340.00 1680.00" />
</g>
<g transform="translate(2340.00, 1680.00) rotate(-1.273027) translate(-2340.00, -1680.00)">
<g style="fill:#ffffff;stroke:#000000;stroke-width:3.00">
<path style="fill:none;stroke-linejoin:round;stroke-linecap:round;" d="M 2325.00 1710.00 L 2340.00 1680.00 L 2355.00 1710.00"/>
</g>
</g>
</g>
</g>
<g bizzid="1214097" bizzsemantic="1213876" bizzconcept="ApplicationInterfaceApplicationComponentUse" bizztype="relation" bizzsymbol="link">
<g>
<g style="fill:#ffffff;stroke:#000000;stroke-width:3.00">
<path style="fill:none;stroke-miterlimit:1.0;stroke-linejoin:round" d="M 2820.00 1860.00 L 2820.00 1680.00" />
</g>
<g transform="translate(2820.00, 1680.00) rotate(0.000003) translate(-2820.00, -1680.00)">
<g style="fill:#ffffff;stroke:#000000;stroke-width:3.00">
<path style="fill:none;stroke-linejoin:round;stroke-linecap:round;" d="M 2805.00 1710.00 L 2820.00 1680.00 L 2835.00 1710.00"/>
</g>
</g>
</g>
</g>
<g bizzid="1214110" bizzsemantic="1214111" bizzconcept="ApplicationInterfaceApplicationComponentUse" bizztype="relation" bizzsymbol="link">
<g>
<g style="fill:#ffffff;stroke:#000000;stroke-width:3.00">
<path style="fill:none;stroke-miterlimit:1.0;stroke-linejoin:round" d="M 3520.00 1860.00 L 3520.00 1500.00 Q 3520.00 1480.00 3500.00 1480.00 L 3340.00 1480.00" />
</g>
<g transform="translate(3340.00, 1480.00) rotate(-89.999995) translate(-3340.00, -1480.00)">
<g style="fill:#ffffff;stroke:#000000;stroke-width:3.00">
<path style="fill:none;stroke-linejoin:round;stroke-linecap:round;" d="M 3325.00 1510.00 L 3340.00 1480.00 L 3355.00 1510.00"/>
</g>
</g>
</g>
</g>
<g bizzid="1214121" bizzsemantic="1214122" bizzconcept="ApplicationInterfaceApplicationComponentUse" bizztype="relation" bizzsymbol="link">
<g>
<g style="fill:#ffffff;stroke:#000000;stroke-width:3.00">
<path style="fill:none;stroke-miterlimit:1.0;stroke-linejoin:round" d="M 4020.00 1860.00 L 4020.00 1500.00 Q 4020.00 1480.00 4000.00 1480.00 L 3340.00 1480.00" />
</g>
<g transform="translate(3340.00, 1480.00) rotate(-89.999995) translate(-3340.00, -1480.00)">
<g style="fill:#ffffff;stroke:#000000;stroke-width:3.00">
<path style="fill:none;stroke-linejoin:round;stroke-linecap:round;" d="M 3325.00 1510.00 L 3340.00 1480.00 L 3355.00 1510.00"/>
</g>
</g>
</g>
</g>
<g bizzid="1214117" bizzsemantic="1213875" bizzconcept="ApplicationInterfaceApplicationComponentUse" bizztype="relation" bizzsymbol="link">
<g>
<g style="fill:#ffffff;stroke:#000000;stroke-width:3.00">
<path style="fill:none;stroke-miterlimit:1.0;stroke-linejoin:round" d="M 876.00 1860.00 L 879.79 1500.00 Q 880.00 1480.00 900.00 1480.00 L 2180.00 1480.00" />
</g>
<g transform="translate(2180.00, 1480.00) rotate(90.000000) translate(-2180.00, -1480.00)">
<g style="fill:#ffffff;stroke:#000000;stroke-width:3.00">
<path style="fill:none;stroke-linejoin:round;stroke-linecap:round;" d="M 2165.00 1510.00 L 2180.00 1480.00 L 2195.00 1510.00"/>
</g>
</g>
</g>
</g>
<g bizzid="1214119" bizzsemantic="1214120" bizzconcept="ApplicationDataObject" bizztype="node" bizzsymbol="column">
<g style="fill:#b8e7fc;stroke:#47aad6;stroke-width:3.00">
<path d="M 680.00 2110.00 h 400.00 v -30.00 h -400.00 v 160.00 h 400.00 v -130.00"/>
</g>
<g bizzid="label1214119" bizzconcept="label" bizztype="text" bizzsymbol="text">
<g font-family="Arial" font-size="35.28" fill="#000000">
<text x="823.00" y="2186.50">Klanten</text>
</g>
</g>
</g>
<g bizzid="660452" bizzsemantic="1214080" bizzconcept="ApplicationDataObject" bizztype="node" bizzsymbol="column">
<g style="fill:#b8e7fc;stroke:#47aad6;stroke-width:3.00">
<path d="M 200.00 2110.00 h 400.00 v -30.00 h -400.00 v 160.00 h 400.00 v -130.00"/>
</g>
<g bizzid="label660452" bizzconcept="label" bizztype="text" bizzsymbol="text">
<g font-family="Arial" font-size="35.28" fill="#000000">
<text x="254.00" y="2186.50">Persoonsinformatie</text>
</g>
</g>
</g>
<g bizzid="1214123" bizzsemantic="1123421" bizzconcept="ApplicationDataObject" bizztype="node" bizzsymbol="column">
<g style="fill:#b8e7fc;stroke:#47aad6;stroke-width:3.00">
<path d="M 3580.00 2710.00 h 400.00 v -30.00 h -400.00 v 160.00 h 400.00 v -130.00"/>
</g>
<g bizzid="label1214123" bizzconcept="label" bizztype="text" bizzsymbol="text">
<g font-family="Arial" font-size="35.28" fill="#000000">
<text x="3625.50" y="2786.50">(Contact-)verzoeken</text>
</g>
</g>
</g>
<use xlink:href="#foreground"></use>
</g>
</svg>
