<?xml version="1.0" encoding="UTF-8" standalone="no"?>
<svg version="1.1" xmlns="http://www.w3.org/2000/svg" xmlns:xlink="http://www.w3.org/1999/xlink" bizzid="648389" width="43.64cm" height="30.64cm" viewBox="1518.00 378.00 4364.00 3064.00" preserveAspectRatio="none">
<g>
<use xlink:href="#background"></use>
<g bizzid="1222869" bizzsemantic="1073975" bizzconcept="ApplicationInterface" bizztype="node" bizzsymbol="rectangle">
<g style="fill:#b8e7fc;stroke:#47aad6;stroke-width:3.00">
<rect x="3500.00" y="1940.00" width="400.00" height="160.00"/>
</g>
<g bizzid="icon1222869" bizzconcept="icon" bizztype="node" bizzsymbol="interface-icon">
<g style="fill:none;stroke:#000000;stroke-width:4.09" transform=" translate(3830.000000, 1950.000000) scale(0.495868,0.481928) translate(-200.000000, -210.000000)">
<path d="M 240,252 L 200,252"/>
<circle cx="280" cy="252" r="40"/>
</g>
</g>
<g bizzid="label1222869" bizzconcept="label" bizztype="text" bizzsymbol="text">
<g font-family="Arial" font-size="35.28" fill="#000000">
<text x="3615.50" y="1990.50">«GEMMA»&#xa;</text>
<text x="3598.50" y="2031.50">Documenten </text>
<text x="3672.50" y="2072.50">API</text>
</g>
</g>
</g>
<g bizzid="1222877" bizzsemantic="1074409" bizzconcept="ApplicationInterface" bizztype="node" bizzsymbol="rectangle">
<g style="fill:#b8e7fc;stroke:#47aad6;stroke-width:3.00">
<rect x="4440.00" y="1940.00" width="400.00" height="160.00"/>
</g>
<g bizzid="icon1222877" bizzconcept="icon" bizztype="node" bizzsymbol="interface-icon">
<g style="fill:none;stroke:#000000;stroke-width:4.09" transform=" translate(4770.000000, 1950.000000) scale(0.495868,0.481928) translate(-200.000000, -210.000000)">
<path d="M 240,252 L 200,252"/>
<circle cx="280" cy="252" r="40"/>
</g>
</g>
<g bizzid="label1222877" bizzconcept="label" bizztype="text" bizzsymbol="text">
<g font-family="Arial" font-size="35.28" fill="#000000">
<text x="4555.50" y="2011.00">«GEMMA»&#xa;</text>
<text x="4560.50" y="2052.00">Zaken API</text>
</g>
</g>
</g>
<g bizzid="1222878" bizzsemantic="1074415" bizzconcept="ApplicationInterface" bizztype="node" bizzsymbol="rectangle">
<g style="fill:#b8e7fc;stroke:#47aad6;stroke-width:3.00">
<rect x="2560.00" y="1940.00" width="400.00" height="160.00"/>
</g>
<g bizzid="icon1222878" bizzconcept="icon" bizztype="node" bizzsymbol="interface-icon">
<g style="fill:none;stroke:#000000;stroke-width:4.09" transform=" translate(2890.000000, 1950.000000) scale(0.495868,0.481928) translate(-200.000000, -210.000000)">
<path d="M 240,252 L 200,252"/>
<circle cx="280" cy="252" r="40"/>
</g>
</g>
<g bizzid="label1222878" bizzconcept="label" bizztype="text" bizzsymbol="text">
<g font-family="Arial" font-size="35.28" fill="#000000">
<text x="2675.50" y="2011.00">«GEMMA»&#xa;</text>
<text x="2670.50" y="2052.00">Klanten API</text>
</g>
</g>
</g>
<g bizzid="1222867" bizzsemantic="1074504" bizzconcept="ApplicationInterface" bizztype="node" bizzsymbol="rectangle">
<g style="fill:#b8e7fc;stroke:#47aad6;stroke-width:3.00">
<rect x="3970.00" y="1940.00" width="400.00" height="160.00"/>
</g>
<g bizzid="icon1222867" bizzconcept="icon" bizztype="node" bizzsymbol="interface-icon">
<g style="fill:none;stroke:#000000;stroke-width:4.09" transform=" translate(4300.000000, 1950.000000) scale(0.495868,0.481928) translate(-200.000000, -210.000000)">
<path d="M 240,252 L 200,252"/>
<circle cx="280" cy="252" r="40"/>
</g>
</g>
<g bizzid="label1222867" bizzconcept="label" bizztype="text" bizzsymbol="text">
<g font-family="Arial" font-size="35.28" fill="#000000">
<text x="4085.50" y="2011.00">«GEMMA»&#xa;</text>
<text x="4076.50" y="2052.00">Catalogi API</text>
</g>
</g>
</g>
<g bizzid="1222870" bizzsemantic="1074506" bizzconcept="ApplicationInterface" bizztype="node" bizzsymbol="rectangle">
<g style="fill:#b8e7fc;stroke:#47aad6;stroke-width:3.00">
<rect x="3030.00" y="1940.00" width="400.00" height="160.00"/>
</g>
<g bizzid="icon1222870" bizzconcept="icon" bizztype="node" bizzsymbol="interface-icon">
<g style="fill:none;stroke:#000000;stroke-width:4.09" transform=" translate(3360.000000, 1950.000000) scale(0.495868,0.481928) translate(-200.000000, -210.000000)">
<path d="M 240,252 L 200,252"/>
<circle cx="280" cy="252" r="40"/>
</g>
</g>
<g bizzid="label1222870" bizzconcept="label" bizztype="text" bizzsymbol="text">
<g font-family="Arial" font-size="35.28" fill="#000000">
<text x="3145.50" y="1990.50">«GEMMA»&#xa;</text>
<text x="3114.50" y="2031.50">Contactmomen</text>
<text x="3174.00" y="2072.50">ten API</text>
</g>
</g>
</g>
<g bizzid="1222866" bizzsemantic="1163614" bizzconcept="ApplicationComponent" bizztype="node" bizzsymbol="rectangle">
<g style="fill:#b8e7fc;stroke:#47aad6;stroke-width:3.00">
<rect x="3500.00" y="740.00" width="400.00" height="160.00"/>
</g>
<g bizzid="icon1222866" bizzconcept="icon" bizztype="node" bizzsymbol="component-icon">
<g style="fill:none;stroke:#000000;stroke-width:7.24" transform=" translate(3850.000000, 750.000000) scale(0.261438,0.291262) translate(2.000000, 2.000000)">
<path d="M 25,15 L 25,0 L 150,0 L 150,100 L 25,100 L 25,80"/>
<path d="M 0,15 L 50,15 L 50,40 L 0,40 L 0,15 z"/>
<path d="M 0,55 L 50,55 L 50,80 L 0,80 L 0,55 z"/>
<path d="M 25,40 L 25,55"/>
</g>
</g>
<g bizzid="label1222866" bizzconcept="label" bizztype="text" bizzsymbol="text">
<g font-family="Arial" font-size="35.28" fill="#000000">
<text x="3582.00" y="831.50">KISS Front-end</text>
</g>
</g>
</g>
<g bizzid="1222876" bizzsemantic="1156173" bizzconcept="ApplicationInterface" bizztype="node" bizzsymbol="rectangle">
<g style="fill:#b8e7fc;stroke:#47aad6;stroke-width:3.00">
<rect x="3500.00" y="1000.00" width="400.00" height="160.00"/>
</g>
<g bizzid="icon1222876" bizzconcept="icon" bizztype="node" bizzsymbol="interface-icon">
<g style="fill:none;stroke:#000000;stroke-width:4.09" transform=" translate(3830.000000, 1010.000000) scale(0.495868,0.481928) translate(-200.000000, -210.000000)">
<path d="M 240,252 L 200,252"/>
<circle cx="280" cy="252" r="40"/>
</g>
</g>
<g bizzid="label1222876" bizzconcept="label" bizztype="text" bizzsymbol="text">
<g font-family="Arial" font-size="35.28" fill="#000000">
<text x="3591.00" y="1091.50">KISS BFF API</text>
</g>
</g>
</g>
<g bizzid="1222879" bizzsemantic="1171082" bizzconcept="ApplicationInterface" bizztype="node" bizzsymbol="rectangle">
<g style="fill:#b8e7fc;stroke:#47aad6;stroke-width:3.00">
<rect x="5380.00" y="1940.00" width="400.00" height="160.00"/>
</g>
<g bizzid="icon1222879" bizzconcept="icon" bizztype="node" bizzsymbol="interface-icon">
<g style="fill:none;stroke:#000000;stroke-width:4.09" transform=" translate(5710.000000, 1950.000000) scale(0.495868,0.481928) translate(-200.000000, -210.000000)">
<path d="M 240,252 L 200,252"/>
<circle cx="280" cy="252" r="40"/>
</g>
</g>
<g bizzid="label1222879" bizzconcept="label" bizztype="text" bizzsymbol="text">
<g font-family="Arial" font-size="35.28" fill="#000000">
<text x="5465.00" y="2031.50">Objecttype API</text>
</g>
</g>
</g>
<g bizzid="1222868" bizzsemantic="1170962" bizzconcept="ApplicationInterface" bizztype="node" bizzsymbol="rectangle">
<g style="fill:#b8e7fc;stroke:#47aad6;stroke-width:3.00">
<rect x="3500.00" y="480.00" width="400.00" height="160.00"/>
</g>
<g bizzid="icon1222868" bizzconcept="icon" bizztype="node" bizzsymbol="interface-icon">
<g style="fill:none;stroke:#000000;stroke-width:4.09" transform=" translate(3830.000000, 490.000000) scale(0.495868,0.481928) translate(-200.000000, -210.000000)">
<path d="M 240,252 L 200,252"/>
<circle cx="280" cy="252" r="40"/>
</g>
</g>
<g bizzid="label1222868" bizzconcept="label" bizztype="text" bizzsymbol="text">
<g font-family="Arial" font-size="35.28" fill="#000000">
<text x="3610.00" y="551.00">KISS Front-</text>
<text x="3617.00" y="592.00">End (VUE)</text>
</g>
</g>
</g>
<g bizzid="1222871" bizzsemantic="1042670" bizzconcept="ApplicationComponent" bizztype="node" bizzsymbol="rectangle">
<g style="fill:#b8e7fc;stroke:#47aad6;stroke-width:3.00">
<rect x="3100.00" y="1240.00" width="1160.00" height="460.00"/>
</g>
<g bizzid="icon1222871" bizzconcept="icon" bizztype="node" bizzsymbol="component-icon">
<g style="fill:none;stroke:#000000;stroke-width:7.24" transform=" translate(4210.000000, 1250.000000) scale(0.261438,0.291262) translate(2.000000, 2.000000)">
<path d="M 25,15 L 25,0 L 150,0 L 150,100 L 25,100 L 25,80"/>
<path d="M 0,15 L 50,15 L 50,40 L 0,40 L 0,15 z"/>
<path d="M 0,55 L 50,55 L 50,80 L 0,80 L 0,55 z"/>
<path d="M 25,40 L 25,55"/>
</g>
</g>
<g bizzid="1222874" bizzsemantic="1155970" bizzconcept="ApplicationComponent" bizztype="node" bizzsymbol="rectangle">
<g style="fill:#b8e7fc;stroke:#47aad6;stroke-width:3.00">
<rect x="3800.00" y="1360.00" width="400.00" height="160.00"/>
</g>
<g bizzid="icon1222874" bizzconcept="icon" bizztype="node" bizzsymbol="component-icon">
<g style="fill:none;stroke:#000000;stroke-width:7.24" transform=" translate(4150.000000, 1370.000000) scale(0.261438,0.291262) translate(2.000000, 2.000000)">
<path d="M 25,15 L 25,0 L 150,0 L 150,100 L 25,100 L 25,80"/>
<path d="M 0,15 L 50,15 L 50,40 L 0,40 L 0,15 z"/>
<path d="M 0,55 L 50,55 L 50,80 L 0,80 L 0,55 z"/>
<path d="M 25,40 L 25,55"/>
</g>
</g>
<g bizzid="label1222874" bizzconcept="label" bizztype="text" bizzsymbol="text">
<g font-family="Arial" font-size="35.28" fill="#000000">
<text x="3929.50" y="1451.50">SyncTool</text>
</g>
</g>
</g>
<g bizzid="1222872" bizzsemantic="1076797" bizzconcept="ApplicationComponent" bizztype="node" bizzsymbol="rectangle">
<g style="fill:#b8e7fc;stroke:#47aad6;stroke-width:3.00">
<rect x="3200.00" y="1360.00" width="460.00" height="280.00"/>
</g>
<g bizzid="icon1222872" bizzconcept="icon" bizztype="node" bizzsymbol="component-icon">
<g style="fill:none;stroke:#000000;stroke-width:7.24" transform=" translate(3610.000000, 1370.000000) scale(0.261438,0.291262) translate(2.000000, 2.000000)">
<path d="M 25,15 L 25,0 L 150,0 L 150,100 L 25,100 L 25,80"/>
<path d="M 0,15 L 50,15 L 50,40 L 0,40 L 0,15 z"/>
<path d="M 0,55 L 50,55 L 50,80 L 0,80 L 0,55 z"/>
<path d="M 25,40 L 25,55"/>
</g>
</g>
<g bizzid="1222873" bizzsemantic="815430" bizzconcept="ApplicationDataObject" bizztype="node" bizzsymbol="column">
<g style="fill:#b8e7fc;stroke:#47aad6;stroke-width:3.00">
<path d="M 3240.00 1490.00 h 400.00 v -30.00 h -400.00 v 160.00 h 400.00 v -130.00"/>
</g>
<g bizzid="label1222873" bizzconcept="label" bizztype="text" bizzsymbol="text">
<g font-family="Arial" font-size="35.28" fill="#000000">
<text x="3363.00" y="1566.50">indexering</text>
</g>
</g>
</g>
<g bizzid="label1222872" bizzconcept="label" bizztype="text" bizzsymbol="text">
<g font-family="Arial" font-size="35.28" fill="#000000">
<text x="3379.50" y="1402.00">Elastic</text>
</g>
</g>
</g>
<g bizzid="label1222871" bizzconcept="label" bizztype="text" bizzsymbol="text">
<g font-family="Arial" font-size="35.28" fill="#000000">
<text x="3420.00" y="1282.00">KISS BFF (Backend-for-Frontend)</text>
</g>
</g>
</g>
<g bizzid="1222880" bizzsemantic="1171065" bizzconcept="ApplicationInterface" bizztype="node" bizzsymbol="rectangle">
<g style="fill:#b8e7fc;stroke:#47aad6;stroke-width:3.00">
<rect x="4910.00" y="1940.00" width="400.00" height="160.00"/>
</g>
<g bizzid="icon1222880" bizzconcept="icon" bizztype="node" bizzsymbol="interface-icon">
<g style="fill:none;stroke:#000000;stroke-width:4.09" transform=" translate(5240.000000, 1950.000000) scale(0.495868,0.481928) translate(-200.000000, -210.000000)">
<path d="M 240,252 L 200,252"/>
<circle cx="280" cy="252" r="40"/>
</g>
</g>
<g bizzid="label1222880" bizzconcept="label" bizztype="text" bizzsymbol="text">
<g font-family="Arial" font-size="35.28" fill="#000000">
<text x="5008.50" y="2031.50">Objecten API</text>
</g>
</g>
</g>
<g bizzid="1222875" bizzsemantic="1170991" bizzconcept="ApplicationInterface" bizztype="node" bizzsymbol="rectangle">
<g style="fill:#b8e7fc;stroke:#47aad6;stroke-width:3.00">
<rect x="2090.00" y="1940.00" width="400.00" height="160.00"/>
</g>
<g bizzid="icon1222875" bizzconcept="icon" bizztype="node" bizzsymbol="interface-icon">
<g style="fill:none;stroke:#000000;stroke-width:4.09" transform=" translate(2420.000000, 1950.000000) scale(0.495868,0.481928) translate(-200.000000, -210.000000)">
<path d="M 240,252 L 200,252"/>
<circle cx="280" cy="252" r="40"/>
</g>
</g>
<g bizzid="label1222875" bizzconcept="label" bizztype="text" bizzsymbol="text">
<g font-family="Arial" font-size="35.28" fill="#000000">
<text x="2187.50" y="2011.00">HaalCentraal </text>
<text x="2222.00" y="2052.00">BRP API</text>
</g>
</g>
</g>
<g bizzid="1222881" bizzsemantic="1170983" bizzconcept="ApplicationComponentApplicationInterfaceComposition" bizztype="relation" bizzsymbol="link">
<g>
<g style="fill:#000000;stroke:#000000;stroke-width:3.00">
<path style="fill:none;stroke-miterlimit:1.0;stroke-linejoin:round" d="M 3700.00 740.00 L 3700.00 640.00" />
</g>
<g transform="translate(3700.00, 740.00) rotate(179.999997) translate(-3700.00, -740.00)">
<g style="fill:#000000;stroke:#000000;stroke-width:3.00">
<path style="stroke-linejoin:round" d="M 3700.00 740.00 L 3715.00, 770.00 L 3700.00 800.00 L 3685.00 770.00 z"/>
</g>
</g>
</g>
</g>
<g bizzid="1222865" bizzsemantic="1171002" bizzconcept="ApplicationComponentApplicationInterfaceComposition" bizztype="relation" bizzsymbol="link">
<g>
<g style="fill:#000000;stroke:#000000;stroke-width:3.00">
<path style="fill:none;stroke-miterlimit:1.0;stroke-linejoin:round" d="M 3700.00 1240.00 L 3700.00 1160.00" />
</g>
<g transform="translate(3700.00, 1240.00) rotate(179.999997) translate(-3700.00, -1240.00)">
<g style="fill:#000000;stroke:#000000;stroke-width:3.00">
<path style="stroke-linejoin:round" d="M 3700.00 1240.00 L 3715.00, 1270.00 L 3700.00 1300.00 L 3685.00 1270.00 z"/>
</g>
</g>
</g>
</g>
<g bizzid="1222886" bizzsemantic="1171016" bizzconcept="ApplicationInterfaceApplicationComponentUse" bizztype="relation" bizzsymbol="link">
<g>
<g style="fill:#ffffff;stroke:#000000;stroke-width:3.00">
<path style="fill:none;stroke-miterlimit:1.0;stroke-linejoin:round" d="M 3700.00 1000.00 L 3700.00 900.00" />
</g>
<g transform="translate(3700.00, 900.00) rotate(0.000003) translate(-3700.00, -900.00)">
<g style="fill:#ffffff;stroke:#000000;stroke-width:3.00">
<path style="fill:none;stroke-linejoin:round;stroke-linecap:round;" d="M 3685.00 930.00 L 3700.00 900.00 L 3715.00 930.00"/>
</g>
</g>
</g>
</g>
<g bizzid="1222895" bizzsemantic="1178517" bizzconcept="ApplicationDataObject" bizztype="node" bizzsymbol="column">
<g style="fill:#b8e7fc;stroke:#47aad6;stroke-width:3.00">
<path d="M 5156.00 2170.00 h 400.00 v -30.00 h -400.00 v 173.00 h 400.00 v -143.00"/>
</g>
<g bizzid="label1222895" bizzconcept="label" bizztype="text" bizzsymbol="text">
<g font-family="Arial" font-size="35.28" fill="#000000">
<text x="5177.00" y="2253.00">PDC/kennisbank-artikel</text>
</g>
</g>
</g>
<g bizzid="1222884" bizzsemantic="1178705" bizzconcept="ApplicationDataObject" bizztype="node" bizzsymbol="column">
<g style="fill:#b8e7fc;stroke:#47aad6;stroke-width:3.00">
<path d="M 5160.00 2801.80 h 400.00 v -30.00 h -400.00 v 173.00 h 400.00 v -143.00"/>
</g>
<g bizzid="label1222884" bizzconcept="label" bizztype="text" bizzsymbol="text">
<g font-family="Arial" font-size="35.28" fill="#000000">
<text x="5207.50" y="2864.30">Contact-verzoeken: </text>
<text x="5271.50" y="2905.30">interne taak</text>
</g>
</g>
</g>
<g bizzid="1222891" bizzsemantic="1178699" bizzconcept="ApplicationDataObject" bizztype="node" bizzsymbol="column">
<g style="fill:#b8e7fc;stroke:#47aad6;stroke-width:3.00">
<path d="M 3030.00 2170.00 h 400.00 v -30.00 h -400.00 v 173.00 h 400.00 v -143.00"/>
</g>
<g bizzid="label1222891" bizzconcept="label" bizztype="text" bizzsymbol="text">
<g font-family="Arial" font-size="35.28" fill="#000000">
<text x="3065.50" y="2232.50">(Contact-)verzoeken: </text>
<text x="3132.50" y="2273.50">klant-contact</text>
</g>
</g>
</g>
<g bizzid="1222883" bizzsemantic="779061" bizzconcept="ApplicationDataObject" bizztype="node" bizzsymbol="column">
<g style="fill:#b8e7fc;stroke:#47aad6;stroke-width:3.00">
<path d="M 3970.00 2170.00 h 400.00 v -30.00 h -400.00 v 173.00 h 400.00 v -143.00"/>
</g>
<g bizzid="label1222883" bizzconcept="label" bizztype="text" bizzsymbol="text">
<g font-family="Arial" font-size="35.28" fill="#000000">
<text x="4091.00" y="2253.00">Zaaktypen</text>
</g>
</g>
</g>
<g bizzid="1222896" bizzsemantic="1074025" bizzconcept="ApplicationDataObject" bizztype="node" bizzsymbol="column">
<g style="fill:#b8e7fc;stroke:#47aad6;stroke-width:3.00">
<path d="M 3500.00 2170.00 h 400.00 v -30.00 h -400.00 v 173.00 h 400.00 v -143.00"/>
</g>
<g bizzid="label1222896" bizzconcept="label" bizztype="text" bizzsymbol="text">
<g font-family="Arial" font-size="35.28" fill="#000000">
<text x="3615.50" y="2232.50">«GEMMA»&#xa;</text>
<text x="3603.50" y="2273.50">Documenten</text>
</g>
</g>
</g>
<g bizzid="1222889" bizzsemantic="815277" bizzconcept="ApplicationDataObject" bizztype="node" bizzsymbol="column">
<g style="fill:#b8e7fc;stroke:#47aad6;stroke-width:3.00">
<path d="M 4436.00 2170.00 h 400.00 v -30.00 h -400.00 v 173.00 h 400.00 v -143.00"/>
</g>
<g bizzid="label1222889" bizzconcept="label" bizztype="text" bizzsymbol="text">
<g font-family="Arial" font-size="35.28" fill="#000000">
<text x="4589.00" y="2253.00">Zaken</text>
</g>
</g>
</g>
<g bizzid="1222882" bizzsemantic="1171036" bizzconcept="ApplicationInterfaceApplicationComponentUse" bizztype="relation" bizzsymbol="link">
<g>
<g style="fill:#ffffff;stroke:#000000;stroke-width:3.00">
<path style="fill:none;stroke-miterlimit:1.0;stroke-linejoin:round" d="M 2280.00 1940.00 L 2280.00 1520.00 Q 2280.00 1500.00 2300.00 1500.00 L 3100.00 1500.00" />
</g>
<g transform="translate(3100.00, 1500.00) rotate(90.000000) translate(-3100.00, -1500.00)">
<g style="fill:#ffffff;stroke:#000000;stroke-width:3.00">
<path style="fill:none;stroke-linejoin:round;stroke-linecap:round;" d="M 3085.00 1530.00 L 3100.00 1500.00 L 3115.00 1530.00"/>
</g>
</g>
</g>
</g>
<g bizzid="1222888" bizzsemantic="1222853" bizzconcept="ApplicationInterfaceApplicationComponentUse" bizztype="relation" bizzsymbol="link">
<g>
<g style="fill:#ffffff;stroke:#000000;stroke-width:3.00">
<path style="fill:none;stroke-miterlimit:1.0;stroke-linejoin:round" d="M 5100.00 1940.00 L 5100.00 1520.00 Q 5100.00 1500.00 5080.00 1500.00 L 4260.00 1500.00" />
</g>
<g transform="translate(4260.00, 1500.00) rotate(-89.999995) translate(-4260.00, -1500.00)">
<g style="fill:#ffffff;stroke:#000000;stroke-width:3.00">
<path style="fill:none;stroke-linejoin:round;stroke-linecap:round;" d="M 4245.00 1530.00 L 4260.00 1500.00 L 4275.00 1530.00"/>
</g>
</g>
</g>
</g>
<g bizzid="1222887" bizzsemantic="1213482" bizzconcept="ApplicationInterfaceApplicationComponentUse" bizztype="relation" bizzsymbol="link">
<g>
<g style="fill:#ffffff;stroke:#000000;stroke-width:3.00">
<path style="fill:none;stroke-miterlimit:1.0;stroke-linejoin:round" d="M 2756.00 1940.00 L 2759.82 1520.00 Q 2760.00 1500.00 2780.00 1500.00 L 3100.00 1500.00" />
</g>
<g transform="translate(3100.00, 1500.00) rotate(90.000000) translate(-3100.00, -1500.00)">
<g style="fill:#ffffff;stroke:#000000;stroke-width:3.00">
<path style="fill:none;stroke-linejoin:round;stroke-linecap:round;" d="M 3085.00 1530.00 L 3100.00 1500.00 L 3115.00 1530.00"/>
</g>
</g>
</g>
</g>
<g bizzid="1222893" bizzsemantic="1222894" bizzconcept="ApplicationDataObject" bizztype="node" bizzsymbol="column">
<g style="fill:#b8e7fc;stroke:#47aad6;stroke-width:3.00">
<path d="M 2560.00 2190.00 h 400.00 v -30.00 h -400.00 v 173.00 h 400.00 v -143.00"/>
</g>
<g bizzid="label1222893" bizzconcept="label" bizztype="text" bizzsymbol="text">
<g font-family="Arial" font-size="35.28" fill="#000000">
<text x="2703.00" y="2273.00">Klanten</text>
</g>
</g>
</g>
<g bizzid="1222904" bizzsemantic="1222905" bizzconcept="ApplicationDataObject" bizztype="node" bizzsymbol="column">
<g style="fill:#b8e7fc;stroke:#47aad6;stroke-width:3.00">
<path d="M 2080.00 2190.00 h 400.00 v -30.00 h -400.00 v 173.00 h 400.00 v -143.00"/>
</g>
<g bizzid="label1222904" bizzconcept="label" bizztype="text" bizzsymbol="text">
<g font-family="Arial" font-size="35.28" fill="#000000">
<text x="2134.00" y="2273.00">Persoonsinformatie</text>
</g>
</g>
</g>
<g bizzid="1222900" bizzsemantic="1222901" bizzconcept="ApplicationDataObject" bizztype="node" bizzsymbol="column">
<g style="fill:#b8e7fc;stroke:#47aad6;stroke-width:3.00">
<path d="M 5160.00 2591.20 h 400.00 v -30.00 h -400.00 v 173.00 h 400.00 v -143.00"/>
</g>
<g bizzid="label1222900" bizzconcept="label" bizztype="text" bizzsymbol="text">
<g font-family="Arial" font-size="35.28" fill="#000000">
<text x="5324.50" y="2674.20">VAC</text>
</g>
</g>
</g>
<g bizzid="1222897" bizzsemantic="1222898" bizzconcept="ApplicationDataObject" bizztype="node" bizzsymbol="column">
<g style="fill:#b8e7fc;stroke:#47aad6;stroke-width:3.00">
<path d="M 1620.00 2190.00 h 400.00 v -30.00 h -400.00 v 173.00 h 400.00 v -143.00"/>
</g>
<g bizzid="label1222897" bizzconcept="label" bizztype="text" bizzsymbol="text">
<g font-family="Arial" font-size="35.28" fill="#000000">
<text x="1739.00" y="2232.00">Bedrijven, </text>
<text x="1673.50" y="2273.00">rechtspersonen en </text>
<text x="1729.00" y="2314.00">organisaties</text>
</g>
</g>
</g>
<g bizzid="1222899" bizzsemantic="1222860" bizzconcept="ApplicationInterface" bizztype="node" bizzsymbol="rectangle">
<g style="fill:#b8e7fc;stroke:#47aad6;stroke-width:3.00">
<rect x="1620.00" y="1940.00" width="400.00" height="160.00"/>
</g>
<g bizzid="icon1222899" bizzconcept="icon" bizztype="node" bizzsymbol="interface-icon">
<g style="fill:none;stroke:#000000;stroke-width:4.09" transform=" translate(1950.000000, 1950.000000) scale(0.495868,0.481928) translate(-200.000000, -210.000000)">
<path d="M 240,252 L 200,252"/>
<circle cx="280" cy="252" r="40"/>
</g>
</g>
<g bizzid="label1222899" bizzconcept="label" bizztype="text" bizzsymbol="text">
<g font-family="Arial" font-size="35.28" fill="#000000">
<text x="1753.00" y="2031.50">KVK API</text>
</g>
</g>
</g>
<g bizzid="1222863" bizzsemantic="1213415" bizzconcept="ApplicationInterfaceApplicationComponentUse" bizztype="relation" bizzsymbol="link">
<g>
<g style="fill:#ffffff;stroke:#000000;stroke-width:3.00">
<path style="fill:none;stroke-miterlimit:1.0;stroke-linejoin:round" d="M 3700.00 1940.00 L 3700.00 1700.00" />
</g>
<g transform="translate(3700.00, 1700.00) rotate(0.000003) translate(-3700.00, -1700.00)">
<g style="fill:#ffffff;stroke:#000000;stroke-width:3.00">
<path style="fill:none;stroke-linejoin:round;stroke-linecap:round;" d="M 3685.00 1730.00 L 3700.00 1700.00 L 3715.00 1730.00"/>
</g>
</g>
</g>
</g>
<g bizzid="1222902" bizzsemantic="1213481" bizzconcept="ApplicationInterfaceApplicationComponentUse" bizztype="relation" bizzsymbol="link">
<g>
<g style="fill:#ffffff;stroke:#000000;stroke-width:3.00">
<path style="fill:none;stroke-miterlimit:1.0;stroke-linejoin:round" d="M 4170.00 1940.00 L 4170.00 1700.00" />
</g>
<g transform="translate(4170.00, 1700.00) rotate(0.000003) translate(-4170.00, -1700.00)">
<g style="fill:#ffffff;stroke:#000000;stroke-width:3.00">
<path style="fill:none;stroke-linejoin:round;stroke-linecap:round;" d="M 4155.00 1730.00 L 4170.00 1700.00 L 4185.00 1730.00"/>
</g>
</g>
</g>
</g>
<g bizzid="1222862" bizzsemantic="1222859" bizzconcept="ApplicationInterfaceApplicationComponentUse" bizztype="relation" bizzsymbol="link">
<g>
<g style="fill:#ffffff;stroke:#000000;stroke-width:3.00">
<path style="fill:none;stroke-miterlimit:1.0;stroke-linejoin:round" d="M 1820.00 1940.00 L 1820.00 1520.00 Q 1820.00 1500.00 1840.00 1500.00 L 3100.00 1500.00" />
</g>
<g transform="translate(3100.00, 1500.00) rotate(90.000000) translate(-3100.00, -1500.00)">
<g style="fill:#ffffff;stroke:#000000;stroke-width:3.00">
<path style="fill:none;stroke-linejoin:round;stroke-linecap:round;" d="M 3085.00 1530.00 L 3100.00 1500.00 L 3115.00 1530.00"/>
</g>
</g>
</g>
</g>
<g bizzid="1222903" bizzsemantic="1213484" bizzconcept="ApplicationInterfaceApplicationComponentUse" bizztype="relation" bizzsymbol="link">
<g>
<g style="fill:#ffffff;stroke:#000000;stroke-width:3.00">
<path style="fill:none;stroke-miterlimit:1.0;stroke-linejoin:round" d="M 4640.00 1940.00 L 4640.00 1520.00 Q 4640.00 1500.00 4620.00 1500.00 L 4260.00 1500.00" />
</g>
<g transform="translate(4260.00, 1500.00) rotate(-89.999995) translate(-4260.00, -1500.00)">
<g style="fill:#ffffff;stroke:#000000;stroke-width:3.00">
<path style="fill:none;stroke-linejoin:round;stroke-linecap:round;" d="M 4245.00 1530.00 L 4260.00 1500.00 L 4275.00 1530.00"/>
</g>
</g>
</g>
</g>
<g bizzid="1222864" bizzsemantic="1213483" bizzconcept="ApplicationInterfaceApplicationComponentUse" bizztype="relation" bizzsymbol="link">
<g>
<g style="fill:#ffffff;stroke:#000000;stroke-width:3.00">
<path style="fill:none;stroke-miterlimit:1.0;stroke-linejoin:round" d="M 3230.00 1940.00 L 3230.00 1700.00" />
</g>
<g transform="translate(3230.00, 1700.00) rotate(0.000003) translate(-3230.00, -1700.00)">
<g style="fill:#ffffff;stroke:#000000;stroke-width:3.00">
<path style="fill:none;stroke-linejoin:round;stroke-linecap:round;" d="M 3215.00 1730.00 L 3230.00 1700.00 L 3245.00 1730.00"/>
</g>
</g>
</g>
</g>
<g bizzid="1286548" bizzsemantic="1286549" bizzconcept="ElementElementAssociation" bizztype="relation" bizzsymbol="link">
<g>
<g style="fill:#000000;stroke:#000000;stroke-width:3.00">
<path style="fill:none;stroke-miterlimit:1.0;stroke-linejoin:round" d="M 5310.00 2020.00 L 5380.00 2020.00" />
</g>
</g>
</g>
<g bizzid="1286550" bizzsemantic="1286551" bizzconcept="ApplicationComponent" bizztype="node" bizzsymbol="rectangle">
<g style="fill:#b8e7fc;stroke:#47aad6;stroke-width:3.00">
<rect x="2400.00" y="760.00" width="400.00" height="160.00"/>
</g>
<g bizzid="icon1286550" bizzconcept="icon" bizztype="node" bizzsymbol="component-icon">
<g style="fill:none;stroke:#000000;stroke-width:7.24" transform=" translate(2750.000000, 770.000000) scale(0.261438,0.291262) translate(2.000000, 2.000000)">
<path d="M 25,15 L 25,0 L 150,0 L 150,100 L 25,100 L 25,80"/>
<path d="M 0,15 L 50,15 L 50,40 L 0,40 L 0,15 z"/>
<path d="M 0,55 L 50,55 L 50,80 L 0,80 L 0,55 z"/>
<path d="M 25,40 L 25,55"/>
</g>
</g>
<g bizzid="label1286550" bizzconcept="label" bizztype="text" bizzsymbol="text">
<g font-family="Arial" font-size="35.28" fill="#000000">
<text x="2487.00" y="831.00">Gemeentelijke </text>
<text x="2542.50" y="872.00">website</text>
</g>
</g>
</g>
<g bizzid="1286552" bizzsemantic="703950" bizzconcept="ApplicationComponent" bizztype="node" bizzsymbol="rectangle">
<g style="fill:#b8e7fc;stroke:#47aad6;stroke-width:3.00">
<rect x="4780.00" y="740.00" width="400.00" height="160.00"/>
</g>
<g bizzid="icon1286552" bizzconcept="icon" bizztype="node" bizzsymbol="component-icon">
<g style="fill:none;stroke:#000000;stroke-width:7.24" transform=" translate(5130.000000, 750.000000) scale(0.261438,0.291262) translate(2.000000, 2.000000)">
<path d="M 25,15 L 25,0 L 150,0 L 150,100 L 25,100 L 25,80"/>
<path d="M 0,15 L 50,15 L 50,40 L 0,40 L 0,15 z"/>
<path d="M 0,55 L 50,55 L 50,80 L 0,80 L 0,55 z"/>
<path d="M 25,40 L 25,55"/>
</g>
</g>
<g bizzid="label1286552" bizzconcept="label" bizztype="text" bizzsymbol="text">
<g font-family="Arial" font-size="35.28" fill="#000000">
<text x="4860.00" y="831.50">Active Directory</text>
</g>
</g>
</g>
<g bizzid="1286553" bizzsemantic="969103" bizzconcept="ApplicationInterface" bizztype="node" bizzsymbol="rectangle">
<g style="fill:#b8e7fc;stroke:#47aad6;stroke-width:3.00">
<rect x="4280.00" y="740.00" width="400.00" height="160.00"/>
</g>
<g bizzid="icon1286553" bizzconcept="icon" bizztype="node" bizzsymbol="interface-icon">
<g style="fill:none;stroke:#000000;stroke-width:4.09" transform=" translate(4610.000000, 750.000000) scale(0.495868,0.481928) translate(-200.000000, -210.000000)">
<path d="M 240,252 L 200,252"/>
<circle cx="280" cy="252" r="40"/>
</g>
</g>
<g bizzid="label1286553" bizzconcept="label" bizztype="text" bizzsymbol="text">
<g font-family="Arial" font-size="35.28" fill="#000000">
<text x="4416.50" y="790.50">OpenID </text>
<text x="4401.50" y="831.50">Connect / </text>
<text x="4415.50" y="872.50">Oauthv2</text>
</g>
</g>
</g>
<g bizzid="1286554" bizzsemantic="1286555" bizzconcept="ApplicationInterface" bizztype="node" bizzsymbol="rectangle">
<g style="fill:#b8e7fc;stroke:#47aad6;stroke-width:3.00">
<rect x="2400.00" y="1040.00" width="400.00" height="160.00"/>
</g>
<g bizzid="icon1286554" bizzconcept="icon" bizztype="node" bizzsymbol="interface-icon">
<g style="fill:none;stroke:#000000;stroke-width:4.09" transform=" translate(2730.000000, 1050.000000) scale(0.495868,0.481928) translate(-200.000000, -210.000000)">
<path d="M 240,252 L 200,252"/>
<circle cx="280" cy="252" r="40"/>
</g>
</g>
<g bizzid="label1286554" bizzconcept="label" bizztype="text" bizzsymbol="text">
<g font-family="Arial" font-size="35.28" fill="#000000">
<text x="2492.50" y="1131.50">Web-interface</text>
</g>
</g>
</g>
<g bizzid="1286556" bizzsemantic="1286557" bizzconcept="ApplicationInterfaceApplicationComponentUse" bizztype="relation" bizzsymbol="link">
<g>
<g style="fill:#ffffff;stroke:#000000;stroke-width:3.00">
<path style="fill:none;stroke-miterlimit:1.0;stroke-linejoin:round" d="M 2600.00 1200.00 L 2600.00 1420.00 Q 2600.00 1440.00 2620.00 1440.00 L 3200.00 1440.00" />
</g>
<g transform="translate(3200.00, 1440.00) rotate(90.000000) translate(-3200.00, -1440.00)">
<g style="fill:#ffffff;stroke:#000000;stroke-width:3.00">
<path style="fill:none;stroke-linejoin:round;stroke-linecap:round;" d="M 3185.00 1470.00 L 3200.00 1440.00 L 3215.00 1470.00"/>
</g>
</g>
</g>
</g>
<g bizzid="1286558" bizzsemantic="1286559" bizzconcept="ApplicationComponentApplicationInterfaceUse" bizztype="relation" bizzsymbol="link">
<g>
<g style="fill:#ffffff;stroke:#000000;stroke-width:3.00">
<path style="fill:none;stroke-miterlimit:1.0;stroke-linejoin:round" d="M 2600.00 920.00 L 2600.00 1040.00" />
</g>
<g transform="translate(2600.00, 1040.00) rotate(179.999997) translate(-2600.00, -1040.00)">
<g style="fill:#ffffff;stroke:#000000;stroke-width:3.00">
<path style="fill:none;stroke-linejoin:round;stroke-linecap:round;" d="M 2585.00 1070.00 L 2600.00 1040.00 L 2615.00 1070.00"/>
</g>
</g>
</g>
</g>
<g bizzid="1286560" bizzsemantic="1286561" bizzconcept="ApplicationComponentApplicationInterfaceUse" bizztype="relation" bizzsymbol="link">
<g>
<g style="fill:#ffffff;stroke:#000000;stroke-width:3.00">
<path style="fill:none;stroke-miterlimit:1.0;stroke-linejoin:round" d="M 4780.00 820.00 L 4680.00 820.00" />
</g>
<g transform="translate(4680.00, 820.00) rotate(-89.999995) translate(-4680.00, -820.00)">
<g style="fill:#ffffff;stroke:#000000;stroke-width:3.00">
<path style="fill:none;stroke-linejoin:round;stroke-linecap:round;" d="M 4665.00 850.00 L 4680.00 820.00 L 4695.00 850.00"/>
</g>
</g>
</g>
</g>
<g bizzid="1286562" bizzsemantic="1286563" bizzconcept="ApplicationInterfaceApplicationComponentUse" bizztype="relation" bizzsymbol="link">
<g>
<g style="fill:#ffffff;stroke:#000000;stroke-width:3.00">
<path style="fill:none;stroke-miterlimit:1.0;stroke-linejoin:round" d="M 4280.00 820.00 L 3900.00 820.00" />
</g>
<g transform="translate(3900.00, 820.00) rotate(-89.999995) translate(-3900.00, -820.00)">
<g style="fill:#ffffff;stroke:#000000;stroke-width:3.00">
<path style="fill:none;stroke-linejoin:round;stroke-linecap:round;" d="M 3885.00 850.00 L 3900.00 820.00 L 3915.00 850.00"/>
</g>
</g>
</g>
</g>
<g bizzid="1286564" bizzsemantic="1286565" bizzconcept="ApplicationDataObject" bizztype="node" bizzsymbol="column">
<g style="fill:#b8e7fc;stroke:#47aad6;stroke-width:3.00">
<path d="M 5160.00 3012.40 h 400.00 v -30.00 h -400.00 v 160.00 h 400.00 v -130.00"/>
</g>
<g bizzid="label1286564" bizzconcept="label" bizztype="text" bizzsymbol="text">
<g font-family="Arial" font-size="35.28" fill="#000000">
<text x="5280.50" y="3088.90">Afdelingen</text>
</g>
</g>
</g>
<g bizzid="1286566" bizzsemantic="1286567" bizzconcept="ApplicationDataObject" bizztype="node" bizzsymbol="column">
<g style="fill:#b8e7fc;stroke:#47aad6;stroke-width:3.00">
<path d="M 5160.00 3210.00 h 400.00 v -30.00 h -400.00 v 160.00 h 400.00 v -130.00"/>
</g>
<g bizzid="label1286566" bizzconcept="label" bizztype="text" bizzsymbol="text">
<g font-family="Arial" font-size="35.28" fill="#000000">
<text x="5294.50" y="3286.50">Groepen</text>
</g>
</g>
</g>
<g bizzid="1286568" bizzsemantic="1286569" bizzconcept="ApplicationDataObject" bizztype="node" bizzsymbol="column">
<g style="fill:#b8e7fc;stroke:#47aad6;stroke-width:3.00">
<path d="M 5160.00 2380.60 h 400.00 v -30.00 h -400.00 v 173.00 h 400.00 v -143.00"/>
</g>
<g bizzid="label1286568" bizzconcept="label" bizztype="text" bizzsymbol="text">
<g font-family="Arial" font-size="35.28" fill="#000000">
<text x="5179.50" y="2463.60">Smoelenboek gegevens</text>
</g>
</g>
</g>
<g bizzid="1286570" bizzsemantic="1166353" bizzconcept="ApplicationDataObject" bizztype="node" bizzsymbol="column">
<g style="fill:#b8e7fc;stroke:#47aad6;stroke-width:3.00">
<path d="M 5280.00 770.00 h 400.00 v -30.00 h -400.00 v 160.00 h 400.00 v -130.00"/>
</g>
<g bizzid="label1286570" bizzconcept="label" bizztype="text" bizzsymbol="text">
<g font-family="Arial" font-size="35.28" fill="#000000">
<text x="5377.50" y="846.50">Medewerkers</text>
</g>
</g>
</g>
<g bizzid="1286571" bizzsemantic="1286572" bizzconcept="ApplicationComponentApplicationDataObjectAccess" bizztype="relation" bizzsymbol="link">
<g>
<g style="fill:#000000;stroke:#000000;stroke-width:3.00;stroke-dasharray:4.00,4.00">
<path style="fill:none;stroke-miterlimit:1.0;stroke-linejoin:round" d="M 5180.00 820.00 L 5280.00 820.00" />
</g>
<g transform="translate(5280.00, 820.00) rotate(90.000000) translate(-5280.00, -820.00)">
<g style="fill:#000000;stroke:#000000;stroke-width:3.00">
<path style="fill:none;stroke-linejoin:round;stroke-linecap:round;" d="M 5270.00 840.00 L 5280.00 820.00 L 5290.00 840.00"/>
</g>
</g>
</g>
</g>
<use xlink:href="#foreground"></use>
</g>
</svg>
